<?xml version="1.0" encoding="UTF-8" standalone="no"?>
<!--
/*******************************************************************************
* Copyright (c) 2010-2015 ITER Organization.
* All rights reserved. This program and the accompanying materials
* are made available under the terms of the Eclipse Public License v1.0
* which accompanies this distribution, and is available at
* http://www.eclipse.org/legal/epl-v10.html
******************************************************************************/
-->

<svg
   xmlns:dc="http://purl.org/dc/elements/1.1/"
   xmlns:cc="http://creativecommons.org/ns#"
   xmlns:rdf="http://www.w3.org/1999/02/22-rdf-syntax-ns#"
   xmlns:svg="http://www.w3.org/2000/svg"
   xmlns="http://www.w3.org/2000/svg"
   xmlns:sodipodi="http://sodipodi.sourceforge.net/DTD/sodipodi-0.dtd"
   xmlns:inkscape="http://www.inkscape.org/namespaces/inkscape"
   width="51pt"
   height="51pt"
   viewBox="0 0 51 51"
   version="1.1"
   id="svg3395"
   inkscape:version="0.91 r13725"
   sodipodi:docname="2 way-Valves On-Off Butterfly On.svg">
  <metadata
     id="metadata3414">
    <rdf:RDF>
      <cc:Work
         rdf:about="">
        <dc:format>image/svg+xml</dc:format>
        <dc:type
           rdf:resource="http://purl.org/dc/dcmitype/StillImage" />
      </cc:Work>
    </rdf:RDF>
  </metadata>
  <defs
     id="defs3412" />
  <sodipodi:namedview
     pagecolor="#ffffff"
     bordercolor="#666666"
     borderopacity="1"
     objecttolerance="10"
     gridtolerance="10"
     guidetolerance="10"
     inkscape:pageopacity="0"
     inkscape:pageshadow="2"
     inkscape:window-width="1855"
     inkscape:window-height="1176"
     id="namedview3410"
     showgrid="false"
     inkscape:zoom="16.298039"
     inkscape:cx="31.875"
     inkscape:cy="31.875"
     inkscape:window-x="65"
     inkscape:window-y="24"
     inkscape:window-maximized="1"
     inkscape:current-layer="svg3395" />
  <g
     id="surface1">
    <path
       style=" stroke:none;fill-rule:evenodd;fill:rgb(100%,100%,100%);fill-opacity:1;"
       d="M 1.351563 1.351563 L 1.378906 1.351563 L 1.378906 1.378906 L 1.351563 1.378906 Z "
       id="path3398" />
    <path
       style=" stroke:none;fill-rule:evenodd;fill:rgb(100%,100%,100%);fill-opacity:1;"
       d="M 49.15625 49.15625 L 49.183594 49.15625 L 49.183594 49.183594 L 49.15625 49.183594 Z "
       id="path3400" />
    <path
       style=" stroke:none;fill-rule:evenodd;fill:rgb(65.098039%,65.098039%,65.098039%);fill-opacity:1;"
       d="M 26.160156 25.269531 C 26.160156 24.777344 25.761719 24.382813 25.273438 24.382813 C 24.785156 24.382813 24.386719 24.777344 24.386719 25.269531 C 24.386719 25.757813 24.785156 26.152344 25.273438 26.152344 C 25.761719 26.152344 26.160156 25.757813 26.160156 25.269531 Z M 9.324219 33.238281 L 41.214844 33.238281 L 41.214844 17.300781 L 9.324219 17.300781 Z "
       id="path3402" />
    <path
       style="fill:none;stroke-width:0.72;stroke-linecap:round;stroke-linejoin:round;stroke:rgb(0%,0%,0%);stroke-opacity:1;stroke-miterlimit:3;"
       d="M 8.980097 22.701007 C 8.980097 22.438508 8.767597 22.228091 8.507181 22.228091 C 8.246764 22.228091 8.034265 22.438508 8.034265 22.701007 C 8.034265 22.961424 8.246764 23.17184 8.507181 23.17184 C 8.767597 23.17184 8.980097 22.961424 8.980097 22.701007 "
       transform="matrix(1.875002,0,0,1.875002,9.322455,-17.294908)"
       id="path3404" />
    <path
       style="fill:none;stroke-width:0.72;stroke-linecap:round;stroke-linejoin:round;stroke:rgb(0%,0%,0%);stroke-opacity:1;stroke-miterlimit:3;"
       d="M 17.009254 18.451012 L 0.000940762 26.951002 "
       transform="matrix(1.875002,0,0,1.875002,9.322455,-17.294908)"
       id="path3406" />
    <path
       style="fill:none;stroke-width:0.72;stroke-linecap:round;stroke-linejoin:round;stroke:rgb(0%,0%,0%);stroke-opacity:1;stroke-miterlimit:3;"
       d="M 0.000940762 26.951002 L 17.009254 26.951002 L 17.009254 18.451012 L 0.000940762 18.451012 L 0.000940762 26.951002 "
       transform="matrix(1.875002,0,0,1.875002,9.322455,-17.294908)"
       id="path3408" />
  </g>
  <path
     style="fill:#000000;fill-opacity:1;fill-rule:nonzero;stroke:none;stroke-width:1px;stroke-linecap:butt;stroke-linejoin:miter;stroke-opacity:1"
     id="path3416"
     d="m 17.548505,24.674143 c 0.307596,0.253201 0.574181,0.552824 0.836748,0.851049 0.465213,0.52839 0.451055,0.518928 0.931612,1.091644 0.934895,1.081221 1.887213,2.148538 2.871504,3.185133 0.537021,0.552901 1.126294,1.050108 1.791883,1.441383 0.306071,0.179928 0.511,0.271913 0.825916,0.424468 0.348234,0.152103 0.697642,0.314786 1.068609,0.405327 0.138237,0.03374 0.19864,0.03795 0.336521,0.05586 0.09234,0.0026 0.181294,0.01042 0.272948,-0.007 0.07494,-0.01429 0.178625,-0.05711 0.245043,-0.09227 0.04321,-0.02287 0.168351,-0.09943 0.125397,-0.07608 -0.160591,0.0873 -0.318941,0.178653 -0.478412,0.26798 0.287952,-0.196221 0.577871,-0.389748 0.835115,-0.625676 0.117608,-0.12138 0.226876,-0.262818 0.229927,-0.440248 0.0022,-0.126002 -0.04006,-0.277969 -0.06485,-0.394678 -0.210442,-0.741828 -0.479686,-1.465103 -0.786779,-2.171882 -0.05128,-0.11486 -0.102811,-0.229606 -0.153829,-0.344582 -0.06262,-0.141113 -0.239256,-0.545671 -0.302861,-0.680225 -0.163965,-0.346864 -0.347172,-0.683243 -0.533895,-1.018157 -0.189183,-0.355714 -0.427014,-0.676793 -0.714333,-0.957846 -0.155303,-0.150314 -0.324048,-0.285397 -0.503429,-0.405538 -0.12456,-0.06679 -0.251968,-0.13799 -0.391528,-0.168789 -0.09491,-0.02094 -0.135678,-0.01584 -0.233486,-0.01647 -0.600693,0.08695 -1.196746,0.204926 -1.795046,0.307309 -0.196977,0.03318 -0.393908,0.06665 -0.590933,0.09955 -0.455835,0.07611 -0.807131,0.131585 -1.261738,0.213202 -0.462697,0.08307 -0.923187,0.177335 -1.385821,0.260732 -0.155192,0.0032 -0.445696,0.09622 -0.579633,-0.05304 -0.129808,-0.144664 -0.03855,-0.465772 -0.01339,-0.6205 0.03062,-0.121039 0.05525,-0.243758 0.09188,-0.363117 0.229895,-0.749127 0.614738,-1.541804 1.057338,-2.185559 0.140193,-0.203909 0.301243,-0.392664 0.451864,-0.588995 0.477315,-0.537623 1.015602,-1.034746 1.667572,-1.354958 0.395078,-0.19404 0.786614,-0.40951 1.21089,-0.526677 0.557185,-0.15387 1.31657,0.0728 1.831418,0.172228 0.444168,0.145544 0.895352,0.271206 1.332506,0.436631 1.065466,0.40319 2.44211,1.050401 3.446854,1.543483 1.433889,0.703685 2.488732,1.267776 3.886064,2.049553 0.651758,0.364645 1.296,0.742565 1.943999,1.113847 1.642428,0.945956 3.294926,1.874352 4.962969,2.774422 0.917131,0.494882 1.839291,0.979182 2.751743,1.48269 0.712845,0.410888 1.394048,0.873481 2.099968,1.295862 0.402371,0.240755 0.48154,0.27636 0.878421,0.486067 0.141871,0.06884 0.429755,0.215419 0.593272,0.272333 0.05882,0.02047 0.11951,0.04555 0.181761,0.04338 0.03798,-0.0013 0.135741,-0.06818 0.100818,-0.05321 -0.636393,0.272897 -0.557722,0.464216 -0.577878,0.02885 -0.03313,-0.137849 -0.05694,-0.27828 -0.09939,-0.413547 C 45.796782,30.95596 45.565982,30.421059 45.354979,29.997116 44.993777,29.271396 44.579542,28.555265 44.11087,27.893992 43.815086,27.476654 43.485069,27.084664 43.172168,26.68 42.108333,25.456653 40.939208,24.324847 39.597023,23.407839 39.18258,23.124683 38.749437,22.868798 38.310533,22.625274 37.365982,22.101195 36.968745,21.964358 36.008858,21.564727 35.373574,21.34531 35.101527,21.231546 34.48059,21.081474 c -0.320915,-0.07756 -0.724556,-0.172309 -1.053964,-0.05662 -0.05865,0.0206 -0.107916,0.06172 -0.161875,0.09258 0.160415,-0.08102 0.308972,-0.191886 0.481247,-0.243064 0.05551,-0.01649 -0.07665,0.08697 -0.111501,0.13322 -0.156707,0.207942 -0.286152,0.44011 -0.423863,0.660787 -0.156808,0.232593 -0.278467,0.485588 -0.403188,0.736081 -0.12447,0.271485 -0.322449,0.499488 -0.509731,0.729075 -0.20686,0.261255 -0.410133,0.524961 -0.627813,0.777389 -0.10211,0.114448 -0.203969,0.231148 -0.324153,0.327488 -0.289795,0.232299 -0.887046,0.535344 -1.110502,0.662613 -0.876796,0.418514 -1.761071,0.821607 -2.651424,1.210412 -0.870181,0.383236 -1.765234,0.703266 -2.660051,1.022804 -0.807367,0.262312 -1.635619,0.457755 -2.460914,0.654697 -1.168196,0.25431 -2.33577,0.515382 -3.515708,0.710098 -0.314522,0.03085 -0.541029,0.03768 -0.77224,-0.213838 -0.252562,-0.274742 -0.323398,-0.681176 -0.420712,-1.025229 -0.346513,-1.462855 -0.513266,-2.959023 -0.68528,-4.44995 -0.192923,-1.521487 -0.325923,-3.049612 -0.435892,-4.579057 -0.0054,-0.45303 -0.107788,-0.918092 -0.02813,-1.369621 0.04218,-0.158385 0.148304,-0.2919 0.290268,-0.375832 0.793144,-0.468924 0.556788,-0.370741 1.114509,-0.551796 0.857775,-0.250009 1.743604,-0.367849 2.629547,-0.461753 0.393856,-0.04704 0.790477,-0.05867 1.186445,-0.04233 0.156101,0.01274 0.306711,0.05418 0.460101,0.08201 0.160386,0.04154 0.320164,0.08205 0.484378,0.105233 0.165812,0.02522 0.334229,0.01434 0.500316,0.03321 0.02651,0.0031 0.05302,0.0062 0.07954,0.0093 0,0 -0.591217,0.419773 -0.591217,0.419773 l 0,0 c -0.02634,-0.0027 -0.0527,-0.0054 -0.07904,-0.008 -0.167148,-0.01136 -0.335427,-0.01077 -0.501236,-0.03793 -0.164561,-0.02695 -0.325344,-0.06935 -0.487891,-0.106088 -0.149653,-0.03005 -0.298481,-0.06576 -0.451417,-0.07562 -0.382056,-0.02067 -0.765063,-0.01546 -1.145862,0.02566 -0.887958,0.08753 -1.775239,0.212407 -2.629086,0.481348 -0.4061,0.149471 -0.461957,0.193432 0.09365,-0.135956 0.04621,-0.02739 -0.0912,0.05725 -0.1331,0.09087 -0.04975,0.03993 -0.105239,0.102962 -0.137404,0.159652 -0.01329,0.02342 -0.02099,0.04959 -0.03149,0.07439 -0.03585,0.131341 -0.04601,0.255522 -0.05031,0.392227 -0.01038,0.329372 0.0052,0.65855 0.01489,0.987741 0.06508,1.537843 0.186757,3.072799 0.389157,4.59911 0.175885,1.480431 0.354344,2.965623 0.736255,4.410244 0.09786,0.317821 0.179207,0.723728 0.421498,0.973007 0.207225,0.213202 0.449128,0.209234 0.723877,0.180776 1.171471,-0.176097 2.328934,-0.432785 3.48411,-0.692989 0.837912,-0.207441 1.675833,-0.421064 2.496307,-0.690513 0.882579,-0.307289 1.765044,-0.615943 2.619352,-0.997132 0.906312,-0.398376 1.807163,-0.8106 2.693561,-1.251688 -0.137895,0.08135 -0.275921,0.162476 -0.413682,0.244052 -0.05531,0.03275 0.111771,-0.06361 0.166343,-0.09759 0.180848,-0.112608 0.33771,-0.252306 0.474431,-0.415819 0.220309,-0.250203 0.426405,-0.51156 0.629786,-0.775619 0.183936,-0.226505 0.385182,-0.447611 0.51187,-0.712673 0.12599,-0.253878 0.246337,-0.512181 0.408066,-0.74596 0.105984,-0.168415 0.210963,-0.337412 0.316499,-0.506095 0.01832,-0.02928 0.174198,-0.280026 0.208378,-0.305027 0.23427,-0.171358 0.488898,-0.31299 0.733347,-0.469486 0.05665,-0.02379 0.110223,-0.05693 0.169943,-0.07137 0.330445,-0.0799 0.708019,0.02717 1.020322,0.117321 0.595838,0.171995 0.868176,0.293203 1.477554,0.525969 0.896224,0.399858 1.383745,0.593975 2.264019,1.094693 0.436216,0.248128 0.867345,0.507094 1.279639,0.793216 1.337981,0.928522 2.508569,2.065946 3.587793,3.279626 0.321662,0.401269 0.659045,0.790427 0.964987,1.203807 0.494559,0.668233 0.910801,1.348817 1.303542,2.078202 0.219648,0.407922 0.4802,0.953203 0.648411,1.399433 0.05063,0.134321 0.08564,0.274024 0.128465,0.411036 0.01282,0.08211 0.09168,0.182503 0.03846,0.246321 -0.174525,0.209246 -0.425595,0.341703 -0.653485,0.491066 -0.03282,0.0215 -0.0781,0.01982 -0.116879,0.01384 -0.06141,-0.0095 -0.119477,-0.0351 -0.176785,-0.0591 -0.157691,-0.06607 -0.436665,-0.217972 -0.574736,-0.290586 -1.005048,-0.56216 -1.9692,-1.191776 -2.941693,-1.807724 C 41.361594,29.572498 40.47527,29.062544 39.587258,28.552973 37.95479,27.616207 36.324068,26.676385 34.696595,25.730965 34.048433,25.36016 33.404605,24.981673 32.752108,24.618549 31.403826,23.86821 30.236043,23.248992 28.84433,22.586677 27.792512,22.086118 26.443865,21.484496 25.328954,21.097074 24.879606,20.94093 24.41619,20.82867 23.959809,20.694466 c -2.914708,-0.461301 0.489389,-0.0012 -1.855116,-0.117457 -0.0483,-0.0024 -0.06429,-0.111369 -0.109759,-0.09489 -0.216845,0.07858 -0.406406,0.220056 -0.596418,0.350793 -0.525927,0.361865 -0.641066,0.526324 -1.086458,0.984643 -0.15036,0.193706 -0.31154,0.379479 -0.45108,0.581118 -0.439506,0.635101 -0.805156,1.403846 -1.022092,2.146906 -0.03382,0.115844 -0.05556,0.234879 -0.08333,0.352318 -0.01159,0.07927 -0.09551,0.443148 -0.0107,0.53289 0.104808,0.110904 0.413047,0.03782 0.525195,0.03543 1.074749,-0.176964 2.145148,-0.380737 3.219591,-0.559764 0.689317,-0.128643 0.335618,-0.06111 0.941183,-0.179201 0.249724,-0.0487 0.501138,-0.10655 0.754036,-0.137568 0.05126,-0.0063 0.102953,-0.0084 0.154429,-0.0126 0.04273,0.0026 0.08572,0.0026 0.128185,0.008 0.188634,0.02426 0.36015,0.115757 0.522857,0.208595 0.180586,0.125002 0.350935,0.264396 0.506533,0.4197 0.283936,0.292505 0.515187,0.625381 0.698055,0.990669 0.181323,0.339294 0.365081,0.678268 0.532391,1.024787 0.124323,0.257487 0.190414,0.420447 0.303869,0.680398 0.05042,0.115536 0.101435,0.230819 0.152151,0.346228 0.305556,0.710614 0.570886,1.436848 0.810526,2.172303 0.106136,0.392669 0.166248,0.574133 -0.121993,0.896989 -0.25283,0.243105 -0.542624,0.43802 -0.830403,0.637172 -0.247722,0.147164 -0.494364,0.296161 -0.743166,0.44149 -0.209331,0.122273 -0.42866,0.173359 -0.670297,0.136542 -0.136882,-0.02238 -0.201584,-0.02926 -0.338191,-0.06779 -0.364255,-0.102752 -0.70411,-0.277726 -1.047107,-0.433292 -0.30578,-0.15482 -0.522333,-0.257632 -0.819163,-0.437712 C 22.761125,31.199296 22.172141,30.696174 21.63631,30.138182 20.655667,29.098273 19.720706,28.016203 18.780195,26.94013 18.30678,26.401177 18.28442,26.363549 17.815062,25.872078 17.57746,25.623283 17.33127,25.368254 17.060685,25.153374 c -0.03801,-0.03018 -0.08003,-0.05491 -0.120051,-0.08237 0,0 0.607875,-0.396858 0.607875,-0.396858 z"
     inkscape:connector-curvature="0" />
</svg>
