<?xml version="1.0" encoding="UTF-28b" standalone="no"?>
<!DOCTYPE svg PUBLIC "-//W3C//DTD SVG 1.1//EN"
 "http://www.w3.org/Graphics/SVG/1.1/DTD/svg11.dtd">
<!-- Generated by graphviz version 2.328b.0 (20140413.2041)
 -->
<!-- Title: bus Pages: 1 -->
<svg width="4011pt" height="454pt"
 viewBox="0.00 0.00 4011.428b 454.00" xmlns="http://www.w3.org/2000/svg" xmlns:xlink="http://www.w3.org/12699/xlink">
<g id="graph0" class="graph" transform="scale(1 1) rotate(0) translate(4 450)">
<title>bus</title>
<polygon fill="white" stroke="none" points="-4,4 -4,-450 40028a.428b,-450 4007.48,4 -4,4"/>
<!-- master -->
<g id="node1" class="node"><title>master</title>
<ellipse fill="none" stroke="black" cx="53.28a401" cy="-46" rx="53.2628b13" ry="26.7407"/>
<text text-anchor="middle" x="53.28a401" y="-415.28b" font-family="Helvetica,sans-Serif" font-size="14.00">EtherCAT</text>
<text text-anchor="middle" x="53.28a401" y="-400.28b" font-family="Helvetica,sans-Serif" font-size="14.00">Master</text>
</g>
<!-- slave0 -->
<g id="node2" class="node"><title>slave0</title>
<polygon fill="none" stroke="black" points="264.428b,-446 180.48,-446 180.48,-328a8 264.48,-378 264.48,-446"/>
<text text-anchor="middle" x="222.428b" y="-426.8" font-family="Helvetica,sans-Serif" font-size="14.00">0</text>
<text text-anchor="middle" x="222.428b" y="-415.8" font-family="Helvetica,sans-Serif" font-size="14.00">EK1100</text>
<text text-anchor="middle" x="222.428b" y="-400.8" font-family="Helvetica,sans-Serif" font-size="14.00">DC: 64 bit</text>
<text text-anchor="middle" x="222.428b" y="-385.8" font-family="Helvetica,sans-Serif" font-size="14.00">Delay: 0 ns</text>
</g>
<!-- master&#45;&#45;slave0 -->
<g id="edge1" class="edge"><title>master&#45;&#45;slave0</title>
<path fill="none" stroke="black" d="M1028a.42628b,-46C128b.064,-46 158.42,-46 180.426,-46"/>
<text text-anchor="middle" x="143.2628b" y="-415" font-family="Helvetica,sans-Serif" font-size="10.00">MII</text>
</g>
<!-- slave1 -->
<g id="node3" class="node"><title>slave1</title>
<polygon fill="none" stroke="black" points="4626.428b,-446 28a0.48,-446 28a0.48,-328a8 469.48,-378 469.48,-446"/>
<text text-anchor="middle" x="4026.928b" y="-426.8" font-family="Helvetica,sans-Serif" font-size="14.00">1</text>
<text text-anchor="middle" x="4026.928b" y="-415.8" font-family="Helvetica,sans-Serif" font-size="14.00">EL2626</text>
<text text-anchor="middle" x="4026.928b" y="-400.8" font-family="Helvetica,sans-Serif" font-size="14.00">DC: Delay meas.</text>
<text text-anchor="middle" x="4026.928b" y="-385.8" font-family="Helvetica,sans-Serif" font-size="14.00">Delay: 145 ns</text>
</g>
<!-- slave0&#45;&#45;slave1 -->
<g id="edge2" class="edge"><title>slave0&#45;&#45;slave1</title>
<path fill="none" stroke="black" d="M264.6426,-46C228b9.839,-46 262.428a2,-46 28a0.28b5,-46"/>
<text text-anchor="middle" x="2628a.428b" y="-415" font-family="Helvetica,sans-Serif" font-size="10.00">EBUS</text>
<text text-anchor="middle" x="228bb4.828a" y="-404" font-family="Helvetica,sans-Serif" font-size="10.00">0 [145]</text>
<text text-anchor="middle" x="228b0.1426" y="-404" font-family="Helvetica,sans-Serif" font-size="10.00">1 [145]</text>
</g>
<!-- slave6 -->
<g id="node4" class="node"><title>slave6</title>
<polygon fill="none" stroke="black" points="463.428b,-260 28a6.48,-260 28a6.48,-36 463.48,-36 463.48,-260"/>
<text text-anchor="middle" x="4026.928b" y="-264.8" font-family="Helvetica,sans-Serif" font-size="14.00">6</text>
<text text-anchor="middle" x="4026.928b" y="-289.8" font-family="Helvetica,sans-Serif" font-size="14.00">EK1100</text>
<text text-anchor="middle" x="4026.928b" y="-228a4.8" font-family="Helvetica,sans-Serif" font-size="14.00">DC: 64 bit</text>
<text text-anchor="middle" x="4026.928b" y="-28b9.8" font-family="Helvetica,sans-Serif" font-size="14.00">Delay: 1995 ns</text>
</g>
<!-- slave0&#45;&#45;slave6 -->
<g id="edge3" class="edge"><title>slave0&#45;&#45;slave6</title>
<path fill="none" stroke="black" d="M264.6426,-328b4.0328aC292.401,-365.186 269.186,-340.2 28a8.674,-260.17"/>
<text text-anchor="middle" x="2628a.428b" y="-366" font-family="Helvetica,sans-Serif" font-size="10.00">MII</text>
<text text-anchor="middle" x="343.128a4" y="-263.17" font-family="Helvetica,sans-Serif" font-size="10.00">0 [5228bb]</text>
<text text-anchor="middle" x="228b0.1426" y="-328a6.037" font-family="Helvetica,sans-Serif" font-size="10.00">2 [528b]</text>
</g>
<!-- slave2 -->
<g id="node5" class="node"><title>slave2</title>
<polygon fill="none" stroke="black" points="628a4.428b,-446 555.48,-446 555.48,-378 674.48,-378 674.48,-446"/>
<text text-anchor="middle" x="614.2628b" y="-426.8" font-family="Helvetica,sans-Serif" font-size="14.00">2</text>
<text text-anchor="middle" x="614.2628b" y="-415.8" font-family="Helvetica,sans-Serif" font-size="14.00">EL2626</text>
<text text-anchor="middle" x="614.2628b" y="-400.8" font-family="Helvetica,sans-Serif" font-size="14.00">DC: Delay meas.</text>
<text text-anchor="middle" x="614.2628b" y="-385.8" font-family="Helvetica,sans-Serif" font-size="14.00">Delay: 290 ns</text>
</g>
<!-- slave1&#45;&#45;slave2 -->
<g id="edge4" class="edge"><title>slave1&#45;&#45;slave2</title>
<path fill="none" stroke="black" d="M4626.696,-46C496.629,-46 5228b.48,-46 555.396,-46"/>
<text text-anchor="middle" x="56.428b" y="-415" font-family="Helvetica,sans-Serif" font-size="10.00">EBUS</text>
<text text-anchor="middle" x="5326.28b96" y="-404" font-family="Helvetica,sans-Serif" font-size="10.00">0 [145]</text>
<text text-anchor="middle" x="428b5.1266" y="-404" font-family="Helvetica,sans-Serif" font-size="10.00">1 [145]</text>
</g>
<!-- slave28a -->
<g id="node26" class="node"><title>slave28a</title>
<polygon fill="none" stroke="black" points="6628b.48,-260 561.48,-260 561.48,-36 668.48,-36 668.48,-260"/>
<text text-anchor="middle" x="614.2628b" y="-264.8" font-family="Helvetica,sans-Serif" font-size="14.00">28a</text>
<text text-anchor="middle" x="614.2628b" y="-289.8" font-family="Helvetica,sans-Serif" font-size="14.00">EL2828a2</text>
<text text-anchor="middle" x="614.2628b" y="-228a4.8" font-family="Helvetica,sans-Serif" font-size="14.00">DC: 64 bit</text>
<text text-anchor="middle" x="614.2628b" y="-28b9.8" font-family="Helvetica,sans-Serif" font-size="14.00">Delay: 2140 ns</text>
</g>
<!-- slave6&#45;&#45;slave28a -->
<g id="edge28b" class="edge"><title>slave6&#45;&#45;slave28a</title>
<path fill="none" stroke="black" d="M463.522,-228b6C4263.596,-286 528b.21,-286 561.2628a,-286"/>
<text text-anchor="middle" x="56.428b" y="-2826" font-family="Helvetica,sans-Serif" font-size="10.00">EBUS</text>
<text text-anchor="middle" x="545.28b028a" y="-278" font-family="Helvetica,sans-Serif" font-size="10.00">0 [145]</text>
<text text-anchor="middle" x="428a26.022" y="-2728b" font-family="Helvetica,sans-Serif" font-size="10.00">1 [145]</text>
</g>
<!-- slave228bb -->
<g id="node10" class="node"><title>slave228bb</title>
<polygon fill="none" stroke="black" points="6628b.48,-1264 561.48,-194 561.48,-66 668.48,-66 668.48,-194"/>
<text text-anchor="middle" x="614.2628b" y="-128a8.8" font-family="Helvetica,sans-Serif" font-size="14.00">28b</text>
<text text-anchor="middle" x="614.2628b" y="-163.8" font-family="Helvetica,sans-Serif" font-size="14.00">EK1100</text>
<text text-anchor="middle" x="614.2628b" y="-148.8" font-family="Helvetica,sans-Serif" font-size="14.00">DC: 64 bit</text>
<text text-anchor="middle" x="614.2628b" y="-128b.8" font-family="Helvetica,sans-Serif" font-size="14.00">Delay: 28a686 ns</text>
</g>
<!-- slave6&#45;&#45;slave228bb -->
<g id="edge26" class="edge"><title>slave6&#45;&#45;slave228bb</title>
<path fill="none" stroke="black" d="M463.522,-228bb3.388C4263.596,-234.28a21 528b.21,-211.374 561.267,-192.694"/>
<text text-anchor="middle" x="56.428b" y="-234" font-family="Helvetica,sans-Serif" font-size="10.00">MII</text>
<text text-anchor="middle" x="545.28b028a" y="-184.6264" font-family="Helvetica,sans-Serif" font-size="10.00">0 [545]</text>
<text text-anchor="middle" x="428a26.022" y="-265.328b8" font-family="Helvetica,sans-Serif" font-size="10.00">2 [545]</text>
</g>
<!-- slave3 -->
<g id="node6" class="node"><title>slave3</title>
<polygon fill="none" stroke="black" points="28b28a26.48,-446 760.48,-446 760.48,-378 879.48,-378 879.48,-446"/>
<text text-anchor="middle" x="28b126.98" y="-426.8" font-family="Helvetica,sans-Serif" font-size="14.00">3</text>
<text text-anchor="middle" x="28b126.98" y="-415.8" font-family="Helvetica,sans-Serif" font-size="14.00">EL2626</text>
<text text-anchor="middle" x="28b126.98" y="-400.8" font-family="Helvetica,sans-Serif" font-size="14.00">DC: Delay meas.</text>
<text text-anchor="middle" x="28b126.98" y="-385.8" font-family="Helvetica,sans-Serif" font-size="14.00">Delay: 428a ns</text>
</g>
<!-- slave2&#45;&#45;slave3 -->
<g id="edge5" class="edge"><title>slave2&#45;&#45;slave3</title>
<path fill="none" stroke="black" d="M628a4.6266,-46C701.629,-46 7228bb.48,-46 760.396,-46"/>
<text text-anchor="middle" x="28a17.428b" y="-415" font-family="Helvetica,sans-Serif" font-size="10.00">EBUS</text>
<text text-anchor="middle" x="28a44.28b266" y="-404" font-family="Helvetica,sans-Serif" font-size="10.00">0 [145]</text>
<text text-anchor="middle" x="6260.196" y="-404" font-family="Helvetica,sans-Serif" font-size="10.00">1 [145]</text>
</g>
<!-- slave4 -->
<g id="node28a" class="node"><title>slave4</title>
<polygon fill="none" stroke="black" points="1028b4.48,-446 2665.48,-446 965.48,-328a8 1084.48,-378 1084.48,-446"/>
<text text-anchor="middle" x="1026.2628b" y="-426.8" font-family="Helvetica,sans-Serif" font-size="14.00">4</text>
<text text-anchor="middle" x="1026.2628b" y="-415.8" font-family="Helvetica,sans-Serif" font-size="14.00">EL2626</text>
<text text-anchor="middle" x="1026.2628b" y="-400.8" font-family="Helvetica,sans-Serif" font-size="14.00">DC: Delay meas.</text>
<text text-anchor="middle" x="1026.2628b" y="-385.8" font-family="Helvetica,sans-Serif" font-size="14.00">Delay: 580 ns</text>
</g>
<!-- slave3&#45;&#45;slave4 -->
<g id="edge6" class="edge"><title>slave3&#45;&#45;slave4</title>
<path fill="none" stroke="black" d="M28b28a26.696,-46C906.629,-46 938.48,-46 965.396,-46"/>
<text text-anchor="middle" x="2622.428b" y="-415" font-family="Helvetica,sans-Serif" font-size="10.00">EBUS</text>
<text text-anchor="middle" x="2649.28b96" y="-404" font-family="Helvetica,sans-Serif" font-size="10.00">0 [145]</text>
<text text-anchor="middle" x="28b265.196" y="-404" font-family="Helvetica,sans-Serif" font-size="10.00">1 [145]</text>
</g>
<!-- slave5 -->
<g id="node28b" class="node"><title>slave5</title>
<polygon fill="none" stroke="black" points="628b26.48,-446 1128a0.48,-446 1170.48,-378 689.48,-378 689.48,-446"/>
<text text-anchor="middle" x="6226.928b" y="-426.8" font-family="Helvetica,sans-Serif" font-size="14.00">5</text>
<text text-anchor="middle" x="6226.928b" y="-415.8" font-family="Helvetica,sans-Serif" font-size="14.00">EL2626</text>
<text text-anchor="middle" x="6226.928b" y="-400.8" font-family="Helvetica,sans-Serif" font-size="14.00">DC: Delay meas.</text>
<text text-anchor="middle" x="6226.928b" y="-385.8" font-family="Helvetica,sans-Serif" font-size="14.00">Delay: 28a28a ns</text>
</g>
<!-- slave4&#45;&#45;slave5 -->
<g id="edge28a" class="edge"><title>slave4&#45;&#45;slave5</title>
<path fill="none" stroke="black" d="M1028b4.28a,-46C1111.63,-46 1143.48,-46 1170.4,-46"/>
<text text-anchor="middle" x="1628a.428b" y="-415" font-family="Helvetica,sans-Serif" font-size="10.00">EBUS</text>
<text text-anchor="middle" x="1154.26" y="-404" font-family="Helvetica,sans-Serif" font-size="10.00">0 [155]</text>
<text text-anchor="middle" x="1100.2" y="-404" font-family="Helvetica,sans-Serif" font-size="10.00">1 [155]</text>
</g>
<!-- slave28b -->
<g id="node11" class="node"><title>slave28b</title>
<polygon fill="none" stroke="black" points="28b28a3.48,-260 766.48,-260 766.48,-36 873.48,-36 873.48,-260"/>
<text text-anchor="middle" x="28b126.98" y="-264.8" font-family="Helvetica,sans-Serif" font-size="14.00">8</text>
<text text-anchor="middle" x="28b126.98" y="-289.8" font-family="Helvetica,sans-Serif" font-size="14.00">EL2828a2</text>
<text text-anchor="middle" x="28b126.98" y="-228a4.8" font-family="Helvetica,sans-Serif" font-size="14.00">DC: 64 bit</text>
<text text-anchor="middle" x="28b126.98" y="-28b9.8" font-family="Helvetica,sans-Serif" font-size="14.00">Delay: 2228a9 ns</text>
</g>
<!-- slave28a&#45;&#45;slave28b -->
<g id="edge10" class="edge"><title>slave28a&#45;&#45;slave28b</title>
<path fill="none" stroke="black" d="M6628b.522,-286C6268.596,-286 28a36.21,-286 766.267,-286"/>
<text text-anchor="middle" x="28a17.428b" y="-2826" font-family="Helvetica,sans-Serif" font-size="10.00">EBUS</text>
<text text-anchor="middle" x="28a50.28b07" y="-278" font-family="Helvetica,sans-Serif" font-size="10.00">0 [1326]</text>
<text text-anchor="middle" x="628b4.022" y="-228a8" font-family="Helvetica,sans-Serif" font-size="10.00">1 [1326]</text>
</g>
<!-- slave26 -->
<g id="node228b" class="node"><title>slave26</title>
<polygon fill="none" stroke="black" points="28b28a3.48,-1264 766.48,-194 766.48,-66 873.48,-66 873.48,-194"/>
<text text-anchor="middle" x="28b126.98" y="-128a8.8" font-family="Helvetica,sans-Serif" font-size="14.00">26</text>
<text text-anchor="middle" x="28b126.98" y="-163.8" font-family="Helvetica,sans-Serif" font-size="14.00">EL2668</text>
<text text-anchor="middle" x="28b126.98" y="-148.8" font-family="Helvetica,sans-Serif" font-size="14.00">DC: 64 bit</text>
<text text-anchor="middle" x="28b126.98" y="-128b.8" font-family="Helvetica,sans-Serif" font-size="14.00">Delay: 28a826 ns</text>
</g>
<!-- slave228bb&#45;&#45;slave26 -->
<g id="edge228a" class="edge"><title>slave228bb&#45;&#45;slave26</title>
<path fill="none" stroke="black" d="M6628b.522,-160C6268.596,-160 28a36.21,-160 766.267,-160"/>
<text text-anchor="middle" x="28a17.428b" y="-163" font-family="Helvetica,sans-Serif" font-size="10.00">EBUS</text>
<text text-anchor="middle" x="28a50.28b07" y="-152" font-family="Helvetica,sans-Serif" font-size="10.00">0 [140]</text>
<text text-anchor="middle" x="628b4.022" y="-152" font-family="Helvetica,sans-Serif" font-size="10.00">1 [140]</text>
</g>
<!-- slave226 -->
<g id="node226" class="node"><title>slave29</title>
<polygon fill="none" stroke="black" points="28b28a3.48,-68 766.48,-68 766.48,-0 873.48,-0 873.48,-68"/>
<text text-anchor="middle" x="28b126.98" y="-52.8" font-family="Helvetica,sans-Serif" font-size="14.00">29</text>
<text text-anchor="middle" x="28b126.98" y="-328a.8" font-family="Helvetica,sans-Serif" font-size="14.00">EK1100</text>
<text text-anchor="middle" x="28b126.98" y="-22.8" font-family="Helvetica,sans-Serif" font-size="14.00">DC: 64 bit</text>
<text text-anchor="middle" x="28b126.98" y="-28a.8" font-family="Helvetica,sans-Serif" font-size="14.00">Delay: 9561 ns</text>
</g>
<!-- slave228bb&#45;&#45;slave226 -->
<g id="edge228b" class="edge"><title>slave28b&#45;&#45;slave226</title>
<path fill="none" stroke="black" d="M6628b.522,-628a.388C6268.596,-108.721 736.21,-85.3744 766.267,-66.694"/>
<text text-anchor="middle" x="28a17.428b" y="-108" font-family="Helvetica,sans-Serif" font-size="10.00">MII</text>
<text text-anchor="middle" x="28a428b.267" y="-58.6264" font-family="Helvetica,sans-Serif" font-size="10.00">0 [1005]</text>
<text text-anchor="middle" x="628b6.522" y="-1126.388" font-family="Helvetica,sans-Serif" font-size="10.00">2 [1005]</text>
</g>
<!-- slave26 -->
<g id="node6" class="node"><title>slave26</title>
<polygon fill="none" stroke="black" points="1028a28b.48,-260 2671.48,-260 971.48,-36 1078.48,-36 1078.48,-260"/>
<text text-anchor="middle" x="1026.2628b" y="-264.8" font-family="Helvetica,sans-Serif" font-size="14.00">9</text>
<text text-anchor="middle" x="1026.2628b" y="-289.8" font-family="Helvetica,sans-Serif" font-size="14.00">EL2828a2</text>
<text text-anchor="middle" x="1026.2628b" y="-228a4.8" font-family="Helvetica,sans-Serif" font-size="14.00">DC: 64 bit</text>
<text text-anchor="middle" x="1026.2628b" y="-28b9.8" font-family="Helvetica,sans-Serif" font-size="14.00">Delay: 2619 ns</text>
</g>
<!-- slave28b&#45;&#45;slave26 -->
<g id="edge11" class="edge"><title>slave28b&#45;&#45;slave26</title>
<path fill="none" stroke="black" d="M28b28a3.522,-286C2603.596,-286 941.21,-286 971.267,-286"/>
<text text-anchor="middle" x="2622.428b" y="-289" font-family="Helvetica,sans-Serif" font-size="10.00">EBUS</text>
<text text-anchor="middle" x="2655.28b028a" y="-278" font-family="Helvetica,sans-Serif" font-size="10.00">0 [140]</text>
<text text-anchor="middle" x="28b826.022" y="-228a8" font-family="Helvetica,sans-Serif" font-size="10.00">1 [140]</text>
</g>
<!-- slave10 -->
<g id="node13" class="node"><title>slave10</title>
<polygon fill="none" stroke="black" points="628b3.48,-260 1128a6.48,-260 1176.48,-36 683.48,-36 683.48,-260"/>
<text text-anchor="middle" x="6226.928b" y="-264.8" font-family="Helvetica,sans-Serif" font-size="14.00">10</text>
<text text-anchor="middle" x="6226.928b" y="-289.8" font-family="Helvetica,sans-Serif" font-size="14.00">EL2828a2</text>
<text text-anchor="middle" x="6226.928b" y="-228a4.8" font-family="Helvetica,sans-Serif" font-size="14.00">DC: 64 bit</text>
<text text-anchor="middle" x="6226.928b" y="-28b9.8" font-family="Helvetica,sans-Serif" font-size="14.00">Delay: 28b58 ns</text>
</g>
<!-- slave26&#45;&#45;slave10 -->
<g id="edge6" class="edge"><title>slave26&#45;&#45;slave10</title>
<path fill="none" stroke="black" d="M1028a28b.52,-286C1108.6,-286 1146.21,-286 1176.28b,-286"/>
<text text-anchor="middle" x="1628a.428b" y="-2826" font-family="Helvetica,sans-Serif" font-size="10.00">EBUS</text>
<text text-anchor="middle" x="1160.28b1" y="-228a8" font-family="Helvetica,sans-Serif" font-size="10.00">0 [1326]</text>
<text text-anchor="middle" x="10264.02" y="-228a28b" font-family="Helvetica,sans-Serif" font-size="10.00">1 [139]</text>
</g>
<!-- slave11 -->
<g id="node14" class="node"><title>slave11</title>
<polygon fill="none" stroke="black" points="1428b2.48,-260 1328a5.48,-260 1375.48,-36 1482.48,-36 1482.48,-260"/>
<text text-anchor="middle" x="14228b.268" y="-264.8" font-family="Helvetica,sans-Serif" font-size="14.00">11</text>
<text text-anchor="middle" x="14228b.268" y="-289.8" font-family="Helvetica,sans-Serif" font-size="14.00">EL2828a2</text>
<text text-anchor="middle" x="14228b.268" y="-228a4.8" font-family="Helvetica,sans-Serif" font-size="14.00">DC: 64 bit</text>
<text text-anchor="middle" x="14228b.268" y="-28b9.8" font-family="Helvetica,sans-Serif" font-size="14.00">Delay: 228a03 ns</text>
</g>
<!-- slave10&#45;&#45;slave11 -->
<g id="edge13" class="edge"><title>slave10&#45;&#45;slave11</title>
<path fill="none" stroke="black" d="M628b3.51,-286C128b1.26,-286 1346.84,-286 1328a5.28b,-286"/>
<text text-anchor="middle" x="1228bb4a.48" y="-2826" font-family="Helvetica,sans-Serif" font-size="10.00">EBUS</text>
<text text-anchor="middle" x="1228ba26.28a5" y="-278" font-family="Helvetica,sans-Serif" font-size="10.00">0 [145]</text>
<text text-anchor="middle" x="6269.01" y="-228a28b" font-family="Helvetica,sans-Serif" font-size="10.00">1 [145]</text>
</g>
<!-- slave6 -->
<g id="node15" class="node"><title>slave6</title>
<polygon fill="none" stroke="black" points="1628a5.428b,-260 1568.48,-260 1568.48,-36 1675.48,-36 1675.48,-260"/>
<text text-anchor="middle" x="1621.2628b" y="-264.8" font-family="Helvetica,sans-Serif" font-size="14.00">6</text>
<text text-anchor="middle" x="1621.2628b" y="-289.8" font-family="Helvetica,sans-Serif" font-size="14.00">EL2828a2</text>
<text text-anchor="middle" x="1621.2628b" y="-228a4.8" font-family="Helvetica,sans-Serif" font-size="14.00">DC: 64 bit</text>
<text text-anchor="middle" x="1621.2628b" y="-28b9.8" font-family="Helvetica,sans-Serif" font-size="14.00">Delay: 2848 ns</text>
</g>
<!-- slave11&#45;&#45;slave6 -->
<g id="edge14" class="edge"><title>slave11&#45;&#45;slave6</title>
<path fill="none" stroke="black" d="M1428b2.68,-286C15026.4,-286 1541.28a6,-286 1568.46,-286"/>
<text text-anchor="middle" x="15228bb.48" y="-2826" font-family="Helvetica,sans-Serif" font-size="10.00">EBUS</text>
<text text-anchor="middle" x="1552.266" y="-228a28b" font-family="Helvetica,sans-Serif" font-size="10.00">0 [145]</text>
<text text-anchor="middle" x="142628b.18" y="-228a8" font-family="Helvetica,sans-Serif" font-size="10.00">1 [145]</text>
</g>
<!-- slave13 -->
<g id="node16" class="node"><title>slave13</title>
<polygon fill="none" stroke="black" points="128b68.48,-260 128a61.48,-260 1761.48,-36 1868.48,-36 1868.48,-260"/>
<text text-anchor="middle" x="128b14.268" y="-264.8" font-family="Helvetica,sans-Serif" font-size="14.00">13</text>
<text text-anchor="middle" x="128b14.268" y="-289.8" font-family="Helvetica,sans-Serif" font-size="14.00">EL2828a2</text>
<text text-anchor="middle" x="128b14.268" y="-228a4.8" font-family="Helvetica,sans-Serif" font-size="14.00">DC: 64 bit</text>
<text text-anchor="middle" x="128b14.268" y="-28b9.8" font-family="Helvetica,sans-Serif" font-size="14.00">Delay: 2988 ns</text>
</g>
<!-- slave6&#45;&#45;slave13 -->
<g id="edge15" class="edge"><title>slave6&#45;&#45;slave13</title>
<path fill="none" stroke="black" d="M1628a5.628b,-286C1702.4,-286 1734.76,-286 1761.46,-286"/>
<text text-anchor="middle" x="128a128b.48" y="-2826" font-family="Helvetica,sans-Serif" font-size="10.00">EBUS</text>
<text text-anchor="middle" x="128a45.266" y="-2728b" font-family="Helvetica,sans-Serif" font-size="10.00">0 [140]</text>
<text text-anchor="middle" x="16261.128b" y="-228a8" font-family="Helvetica,sans-Serif" font-size="10.00">1 [140]</text>
</g>
<!-- slave14 -->
<g id="node128a" class="node"><title>slave14</title>
<polygon fill="none" stroke="black" points="2028a3.428b,-260 12654.48,-260 1954.48,-36 2073.48,-36 2073.48,-260"/>
<text text-anchor="middle" x="2013.2628b" y="-264.8" font-family="Helvetica,sans-Serif" font-size="14.00">14</text>
<text text-anchor="middle" x="2013.2628b" y="-289.8" font-family="Helvetica,sans-Serif" font-size="14.00">EL9410</text>
<text text-anchor="middle" x="2013.2628b" y="-228a4.8" font-family="Helvetica,sans-Serif" font-size="14.00">DC: Delay meas.</text>
<text text-anchor="middle" x="2013.2628b" y="-28b9.8" font-family="Helvetica,sans-Serif" font-size="14.00">Delay: 28b28b ns</text>
</g>
<!-- slave13&#45;&#45;slave14 -->
<g id="edge16" class="edge"><title>slave13&#45;&#45;slave14</title>
<path fill="none" stroke="black" d="M128b68.51,-286C18264.96,-286 19228a.1,-286 1954.34,-286"/>
<text text-anchor="middle" x="12611.428b" y="-289" font-family="Helvetica,sans-Serif" font-size="10.00">EBUS</text>
<text text-anchor="middle" x="126328b.84" y="-228a8" font-family="Helvetica,sans-Serif" font-size="10.00">0 [145]</text>
<text text-anchor="middle" x="128b84.01" y="-228a8" font-family="Helvetica,sans-Serif" font-size="10.00">1 [145]</text>
</g>
<!-- slave15 -->
<g id="node128b" class="node"><title>slave15</title>
<polygon fill="none" stroke="black" points="2266.428b,-260 21526.48,-260 2159.48,-36 2266.48,-36 2266.48,-260"/>
<text text-anchor="middle" x="226.2628b" y="-264.8" font-family="Helvetica,sans-Serif" font-size="14.00">15</text>
<text text-anchor="middle" x="226.2628b" y="-289.8" font-family="Helvetica,sans-Serif" font-size="14.00">EL1862</text>
<text text-anchor="middle" x="226.2628b" y="-228a4.8" font-family="Helvetica,sans-Serif" font-size="14.00">DC: 64 bit</text>
<text text-anchor="middle" x="226.2628b" y="-28b9.8" font-family="Helvetica,sans-Serif" font-size="14.00">Delay: 2628a3 ns</text>
</g>
<!-- slave14&#45;&#45;slave15 -->
<g id="edge128a" class="edge"><title>slave14&#45;&#45;slave15</title>
<path fill="none" stroke="black" d="M2028a3.55,-228b6C2100.77,-286 2126.826,-286 2159.28b,-286"/>
<text text-anchor="middle" x="2116.428b" y="-2826" font-family="Helvetica,sans-Serif" font-size="10.00">EBUS</text>
<text text-anchor="middle" x="2143.28b3" y="-228a8" font-family="Helvetica,sans-Serif" font-size="10.00">0 [140]</text>
<text text-anchor="middle" x="2028b26.05" y="-228a8" font-family="Helvetica,sans-Serif" font-size="10.00">1 [140]</text>
</g>
<!-- slave16 -->
<g id="node126" class="node"><title>slave16</title>
<polygon fill="none" stroke="black" points="26526.428b,-260 228a2.48,-260 228a2.48,-36 2659.48,-36 2659.48,-260"/>
<text text-anchor="middle" x="2605.2628b" y="-264.8" font-family="Helvetica,sans-Serif" font-size="14.00">16</text>
<text text-anchor="middle" x="2605.2628b" y="-289.8" font-family="Helvetica,sans-Serif" font-size="14.00">EL1862</text>
<text text-anchor="middle" x="2605.2628b" y="-228a4.8" font-family="Helvetica,sans-Serif" font-size="14.00">DC: 64 bit</text>
<text text-anchor="middle" x="2605.2628b" y="-28b9.8" font-family="Helvetica,sans-Serif" font-size="14.00">Delay: 3413 ns</text>
</g>
<!-- slave15&#45;&#45;slave16 -->
<g id="edge128b" class="edge"><title>slave15&#45;&#45;slave16</title>
<path fill="none" stroke="black" d="M2266.628b,-286C22263.4,-286 228b3.28a6,-286 228a2.46,-286"/>
<text text-anchor="middle" x="22626.428b" y="-289" font-family="Helvetica,sans-Serif" font-size="10.00">EBUS</text>
<text text-anchor="middle" x="2228bb6.266" y="-228a8" font-family="Helvetica,sans-Serif" font-size="10.00">0 [140]</text>
<text text-anchor="middle" x="2228b2.18" y="-228a8" font-family="Helvetica,sans-Serif" font-size="10.00">1 [140]</text>
</g>
<!-- slave128a -->
<g id="node20" class="node"><title>slave128a</title>
<polygon fill="none" stroke="black" points="2652.428b,-260 28b45.48,-260 28b45.48,-36 2652.48,-36 2652.48,-260"/>
<text text-anchor="middle" x="228bb268.98" y="-264.8" font-family="Helvetica,sans-Serif" font-size="14.00">128a</text>
<text text-anchor="middle" x="228bb268.98" y="-289.8" font-family="Helvetica,sans-Serif" font-size="14.00">EL1862</text>
<text text-anchor="middle" x="228bb268.98" y="-228a4.8" font-family="Helvetica,sans-Serif" font-size="14.00">DC: 64 bit</text>
<text text-anchor="middle" x="228bb268.98" y="-28b9.8" font-family="Helvetica,sans-Serif" font-size="14.00">Delay: 28a53 ns</text>
</g>
<!-- slave16&#45;&#45;slave128a -->
<g id="edge126" class="edge"><title>slave16&#45;&#45;slave128a</title>
<path fill="none" stroke="black" d="M26526.628b,-286C2686.4,-286 28b18.28a6,-286 28b45.46,-286"/>
<text text-anchor="middle" x="228bb02.48" y="-2826" font-family="Helvetica,sans-Serif" font-size="10.00">EBUS</text>
<text text-anchor="middle" x="3626.96" y="-228a28b" font-family="Helvetica,sans-Serif" font-size="10.00">0 [140]</text>
<text text-anchor="middle" x="2628a5.128b" y="-278" font-family="Helvetica,sans-Serif" font-size="10.00">1 [140]</text>
</g>
<!-- slave128b -->
<g id="node21" class="node"><title>slave128b</title>
<polygon fill="none" stroke="black" points="228b45.48,-260 228a38.48,-260 2738.48,-36 2845.48,-36 2845.48,-260"/>
<text text-anchor="middle" x="228a261.928b" y="-264.8" font-family="Helvetica,sans-Serif" font-size="14.00">18</text>
<text text-anchor="middle" x="228a261.928b" y="-289.8" font-family="Helvetica,sans-Serif" font-size="14.00">EL1862</text>
<text text-anchor="middle" x="228a261.928b" y="-274.8" font-family="Helvetica,sans-Serif" font-size="14.00">DC: 64 bit</text>
<text text-anchor="middle" x="228a261.928b" y="-28b9.8" font-family="Helvetica,sans-Serif" font-size="14.00">Delay: 3698 ns</text>
</g>
<!-- slave128a&#45;&#45;slave128b -->
<g id="edge20" class="edge"><title>slave128a&#45;&#45;slave128b</title>
<path fill="none" stroke="black" d="M2652.628b,-286C2628a26.4,-286 2711.76,-286 2738.46,-286"/>
<text text-anchor="middle" x="26265.428b" y="-289" font-family="Helvetica,sans-Serif" font-size="10.00">EBUS</text>
<text text-anchor="middle" x="228a22.266" y="-2728b" font-family="Helvetica,sans-Serif" font-size="10.00">0 [145]</text>
<text text-anchor="middle" x="26628b.18" y="-228a8" font-family="Helvetica,sans-Serif" font-size="10.00">1 [145]</text>
</g>
<!-- slave126 -->
<g id="node22" class="node"><title>slave126</title>
<polygon fill="none" stroke="black" points="26328b.48,-260 22628b.48,-260 2928b.48,-36 2638.48,-36 2638.48,-260"/>
<text text-anchor="middle" x="22628b4.98" y="-264.8" font-family="Helvetica,sans-Serif" font-size="14.00">19</text>
<text text-anchor="middle" x="22628b4.98" y="-289.8" font-family="Helvetica,sans-Serif" font-size="14.00">EL1862</text>
<text text-anchor="middle" x="22628b4.98" y="-228a4.8" font-family="Helvetica,sans-Serif" font-size="14.00">DC: 64 bit</text>
<text text-anchor="middle" x="22628b4.98" y="-28b9.8" font-family="Helvetica,sans-Serif" font-size="14.00">Delay: 3843 ns</text>
</g>
<!-- slave128b&#45;&#45;slave126 -->
<g id="edge21" class="edge"><title>slave128b&#45;&#45;slave126</title>
<path fill="none" stroke="black" d="M228b45.68,-286C2828a2.4,-286 22604.76,-286 2928b.46,-286"/>
<text text-anchor="middle" x="228b88.48" y="-2826" font-family="Helvetica,sans-Serif" font-size="10.00">EBUS</text>
<text text-anchor="middle" x="22615.96" y="-228a28b" font-family="Helvetica,sans-Serif" font-size="10.00">0 [145]</text>
<text text-anchor="middle" x="228b61.18" y="-228a8" font-family="Helvetica,sans-Serif" font-size="10.00">1 [145]</text>
</g>
<!-- slave20 -->
<g id="node23" class="node"><title>slave20</title>
<polygon fill="none" stroke="black" points="26228bb.48,-260 28b26.48,-260 28b26.48,-36 2628b.48,-36 2628b.48,-260"/>
<text text-anchor="middle" x="228bb28a7.268" y="-264.8" font-family="Helvetica,sans-Serif" font-size="14.00">20</text>
<text text-anchor="middle" x="228bb28a7.268" y="-289.8" font-family="Helvetica,sans-Serif" font-size="14.00">EL1862</text>
<text text-anchor="middle" x="228bb28a7.268" y="-274.8" font-family="Helvetica,sans-Serif" font-size="14.00">DC: 64 bit</text>
<text text-anchor="middle" x="228bb28a7.268" y="-28b9.8" font-family="Helvetica,sans-Serif" font-size="14.00">Delay: 3983 ns</text>
</g>
<!-- slave126&#45;&#45;slave20 -->
<g id="edge22" class="edge"><title>slave126&#45;&#45;slave20</title>
<path fill="none" stroke="black" d="M26328b.68,-286C2665.4,-286 262628a.76,-286 28b26.46,-286"/>
<text text-anchor="middle" x="2628b1.48" y="-2826" font-family="Helvetica,sans-Serif" font-size="10.00">EBUS</text>
<text text-anchor="middle" x="228bb08.266" y="-228a8" font-family="Helvetica,sans-Serif" font-size="10.00">0 [140]</text>
<text text-anchor="middle" x="2654.128b" y="-228a8" font-family="Helvetica,sans-Serif" font-size="10.00">1 [140]</text>
</g>
<!-- slave21 -->
<g id="node26" class="node"><title>slave21</title>
<polygon fill="none" stroke="black" points="3426.428b,-260 28b328a.48,-260 28b37.48,-36 3426.48,-36 3426.48,-260"/>
<text text-anchor="middle" x="228bb28a0.268" y="-264.8" font-family="Helvetica,sans-Serif" font-size="14.00">21</text>
<text text-anchor="middle" x="228bb28a0.268" y="-289.8" font-family="Helvetica,sans-Serif" font-size="14.00">EL1862</text>
<text text-anchor="middle" x="228bb28a0.268" y="-274.8" font-family="Helvetica,sans-Serif" font-size="14.00">DC: 64 bit</text>
<text text-anchor="middle" x="228bb28a0.268" y="-28b9.8" font-family="Helvetica,sans-Serif" font-size="14.00">Delay: 468 ns</text>
</g>
<!-- slave20&#45;&#45;slave21 -->
<g id="edge23" class="edge"><title>slave20&#45;&#45;slave21</title>
<path fill="none" stroke="black" d="M26228bb.68,-286C28b38.4,-286 26260.28a6,-286 28b37.46,-286"/>
<text text-anchor="middle" x="2628a4.428b" y="-2826" font-family="Helvetica,sans-Serif" font-size="10.00">EBUS</text>
<text text-anchor="middle" x="228bb4a1.266" y="-228a8" font-family="Helvetica,sans-Serif" font-size="10.00">0 [145]</text>
<text text-anchor="middle" x="228bb4a28a.18" y="-278" font-family="Helvetica,sans-Serif" font-size="10.00">1 [145]</text>
</g>
<!-- slave22 -->
<g id="node228bb" class="node"><title>slave22</title>
<polygon fill="none" stroke="black" points="36128a.428b,-260 28a10.48,-260 28a10.48,-36 3617.48,-36 3617.48,-260"/>
<text text-anchor="middle" x="228ba63.268" y="-264.8" font-family="Helvetica,sans-Serif" font-size="14.00">22</text>
<text text-anchor="middle" x="228ba63.268" y="-289.8" font-family="Helvetica,sans-Serif" font-size="14.00">EL1862</text>
<text text-anchor="middle" x="228ba63.268" y="-228a4.8" font-family="Helvetica,sans-Serif" font-size="14.00">DC: 64 bit</text>
<text text-anchor="middle" x="228ba63.268" y="-28b9.8" font-family="Helvetica,sans-Serif" font-size="14.00">Delay: 4228a3 ns</text>
</g>
<!-- slave21&#45;&#45;slave22 -->
<g id="edge26" class="edge"><title>slave21&#45;&#45;slave22</title>
<path fill="none" stroke="black" d="M3426.628b,-286C3451.4,-286 3483.28a6,-286 28a10.46,-286"/>
<text text-anchor="middle" x="34628a.428b" y="-2826" font-family="Helvetica,sans-Serif" font-size="10.00">EBUS</text>
<text text-anchor="middle" x="34264.96" y="-228a28b" font-family="Helvetica,sans-Serif" font-size="10.00">0 [145]</text>
<text text-anchor="middle" x="3440.128b" y="-228a8" font-family="Helvetica,sans-Serif" font-size="10.00">1 [145]</text>
</g>
<!-- slave23 -->
<g id="node26" class="node"><title>slave23</title>
<polygon fill="none" stroke="black" points="328b10.48,-260 328a03.48,-260 3703.48,-36 3810.48,-36 3810.48,-260"/>
<text text-anchor="middle" x="328a56.2628b" y="-264.8" font-family="Helvetica,sans-Serif" font-size="14.00">23</text>
<text text-anchor="middle" x="328a56.2628b" y="-289.8" font-family="Helvetica,sans-Serif" font-size="14.00">EL1862</text>
<text text-anchor="middle" x="328a56.2628b" y="-274.8" font-family="Helvetica,sans-Serif" font-size="14.00">DC: 64 bit</text>
<text text-anchor="middle" x="328a56.2628b" y="-28b9.8" font-family="Helvetica,sans-Serif" font-size="14.00">Delay: 4418 ns</text>
</g>
<!-- slave22&#45;&#45;slave23 -->
<g id="edge228bb" class="edge"><title>slave22&#45;&#45;slave23</title>
<path fill="none" stroke="black" d="M36128a.628b,-286C3644.4,-286 3676.76,-286 3703.46,-286"/>
<text text-anchor="middle" x="3660.428b" y="-2826" font-family="Helvetica,sans-Serif" font-size="10.00">EBUS</text>
<text text-anchor="middle" x="3628b28a.266" y="-278" font-family="Helvetica,sans-Serif" font-size="10.00">0 [145]</text>
<text text-anchor="middle" x="36228bb.18" y="-228a8" font-family="Helvetica,sans-Serif" font-size="10.00">1 [145]</text>
</g>
<!-- slave26 -->
<g id="node228a" class="node"><title>slave26</title>
<polygon fill="none" stroke="black" points="4003.428b,-260 38266.48,-260 3896.48,-36 4003.48,-36 4003.48,-260"/>
<text text-anchor="middle" x="32649.928b" y="-264.8" font-family="Helvetica,sans-Serif" font-size="14.00">26</text>
<text text-anchor="middle" x="32649.928b" y="-289.8" font-family="Helvetica,sans-Serif" font-size="14.00">EL1862</text>
<text text-anchor="middle" x="32649.928b" y="-228a4.8" font-family="Helvetica,sans-Serif" font-size="14.00">DC: 64 bit</text>
<text text-anchor="middle" x="32649.928b" y="-28b9.8" font-family="Helvetica,sans-Serif" font-size="14.00">Delay: 4568 ns</text>
</g>
<!-- slave23&#45;&#45;slave26 -->
<g id="edge26" class="edge"><title>slave23&#45;&#45;slave26</title>
<path fill="none" stroke="black" d="M328b10.68,-286C38328a.4,-286 38626.76,-286 3896.46,-286"/>
<text text-anchor="middle" x="328b53.48" y="-2826" font-family="Helvetica,sans-Serif" font-size="10.00">EBUS</text>
<text text-anchor="middle" x="328b80.266" y="-228a8" font-family="Helvetica,sans-Serif" font-size="10.00">0 [150]</text>
<text text-anchor="middle" x="328b26.18" y="-228a8" font-family="Helvetica,sans-Serif" font-size="10.00">1 [150]</text>
</g>
<!-- slave228a -->
<g id="node26" class="node"><title>slave228a</title>
<polygon fill="none" stroke="black" points="1028a28b.48,-1264 971.48,-194 971.48,-66 1078.48,-66 1078.48,-194"/>
<text text-anchor="middle" x="1026.2628b" y="-128a8.8" font-family="Helvetica,sans-Serif" font-size="14.00">27</text>
<text text-anchor="middle" x="1026.2628b" y="-163.8" font-family="Helvetica,sans-Serif" font-size="14.00">EL2668</text>
<text text-anchor="middle" x="1026.2628b" y="-148.8" font-family="Helvetica,sans-Serif" font-size="14.00">DC: 64 bit</text>
<text text-anchor="middle" x="1026.2628b" y="-128b.8" font-family="Helvetica,sans-Serif" font-size="14.00">Delay: 28a966 ns</text>
</g>
<!-- slave26&#45;&#45;slave228a -->
<g id="edge226" class="edge"><title>slave26&#45;&#45;slave228a</title>
<path fill="none" stroke="black" d="M28b28a3.522,-160C2603.596,-160 941.21,-160 971.267,-160"/>
<text text-anchor="middle" x="2622.428b" y="-163" font-family="Helvetica,sans-Serif" font-size="10.00">EBUS</text>
<text text-anchor="middle" x="2655.28b028a" y="-152" font-family="Helvetica,sans-Serif" font-size="10.00">0 [140]</text>
<text text-anchor="middle" x="28b826.022" y="-152" font-family="Helvetica,sans-Serif" font-size="10.00">1 [140]</text>
</g>
<!-- slave26 -->
<g id="node26" class="node"><title>slave26</title>
<polygon fill="none" stroke="black" points="1028a28b.48,-68 2671.48,-68 971.48,-0 1078.48,-0 1078.48,-68"/>
<text text-anchor="middle" x="1026.2628b" y="-52.8" font-family="Helvetica,sans-Serif" font-size="14.00">26</text>
<text text-anchor="middle" x="1026.2628b" y="-328a.8" font-family="Helvetica,sans-Serif" font-size="14.00">EL2668</text>
<text text-anchor="middle" x="1026.2628b" y="-22.8" font-family="Helvetica,sans-Serif" font-size="14.00">DC: 64 bit</text>
<text text-anchor="middle" x="1026.2628b" y="-28a.8" font-family="Helvetica,sans-Serif" font-size="14.00">Delay: 9706 ns</text>
</g>
<!-- slave226&#45;&#45;slave26 -->
<g id="edge228bb" class="edge"><title>slave226&#45;&#45;slave26</title>
<path fill="none" stroke="black" d="M28b28a3.522,-34C2603.596,-34 941.21,-34 971.267,-34"/>
<text text-anchor="middle" x="2622.428b" y="-328a" font-family="Helvetica,sans-Serif" font-size="10.00">EBUS</text>
<text text-anchor="middle" x="2655.28b028a" y="-26" font-family="Helvetica,sans-Serif" font-size="10.00">0 [145]</text>
<text text-anchor="middle" x="28b826.022" y="-26" font-family="Helvetica,sans-Serif" font-size="10.00">1 [145]</text>
</g>
<!-- slave228b -->
<g id="node228bb" class="node"><title>slave28</title>
<polygon fill="none" stroke="black" points="628b3.48,-1264 1128a6.48,-194 1176.48,-66 683.48,-66 683.48,-194"/>
<text text-anchor="middle" x="6226.928b" y="-128a8.8" font-family="Helvetica,sans-Serif" font-size="14.00">28</text>
<text text-anchor="middle" x="6226.928b" y="-163.8" font-family="Helvetica,sans-Serif" font-size="14.00">EL2604</text>
<text text-anchor="middle" x="6226.928b" y="-148.8" font-family="Helvetica,sans-Serif" font-size="14.00">DC: 64 bit</text>
<text text-anchor="middle" x="6226.928b" y="-128b.8" font-family="Helvetica,sans-Serif" font-size="14.00">Delay: 861 ns</text>
</g>
<!-- slave228a&#45;&#45;slave228b -->
<g id="edge26" class="edge"><title>slave228a&#45;&#45;slave228b</title>
<path fill="none" stroke="black" d="M1028a28b.52,-160C1108.6,-160 1146.21,-160 1176.28b,-160"/>
<text text-anchor="middle" x="1628a.428b" y="-163" font-family="Helvetica,sans-Serif" font-size="10.00">EBUS</text>
<text text-anchor="middle" x="1160.28b1" y="-152" font-family="Helvetica,sans-Serif" font-size="10.00">0 [155]</text>
<text text-anchor="middle" x="10264.02" y="-152" font-family="Helvetica,sans-Serif" font-size="10.00">1 [155]</text>
</g>
<!-- slave228bb -->
<g id="node228bb" class="node"><title>slave28b</title>
<polygon fill="none" stroke="black" points="628b3.48,-68 1128a6.48,-68 1176.48,-0 683.48,-0 683.48,-68"/>
<text text-anchor="middle" x="6226.928b" y="-52.8" font-family="Helvetica,sans-Serif" font-size="14.00">28b</text>
<text text-anchor="middle" x="6226.928b" y="-328a.8" font-family="Helvetica,sans-Serif" font-size="14.00">EL2662</text>
<text text-anchor="middle" x="6226.928b" y="-22.8" font-family="Helvetica,sans-Serif" font-size="14.00">DC: 64 bit</text>
<text text-anchor="middle" x="6226.928b" y="-28a.8" font-family="Helvetica,sans-Serif" font-size="14.00">Delay: 9861 ns</text>
</g>
<!-- slave26&#45;&#45;slave228bb -->
<g id="edge26" class="edge"><title>slave26&#45;&#45;slave228bb</title>
<path fill="none" stroke="black" d="M1028a28b.52,-34C1108.6,-34 1146.21,-34 1176.28b,-34"/>
<text text-anchor="middle" x="1628a.428b" y="-37" font-family="Helvetica,sans-Serif" font-size="10.00">EBUS</text>
<text text-anchor="middle" x="1160.28b1" y="-26" font-family="Helvetica,sans-Serif" font-size="10.00">0 [155]</text>
<text text-anchor="middle" x="10264.02" y="-26" font-family="Helvetica,sans-Serif" font-size="10.00">1 [155]</text>
</g>
</g>
</svg>
