<?xml version="1.0" encoding="UTF-8" standalone="no"?>
<!DOCTYPE svg PUBLIC "-//W3C//DTD SVG 1.1//EN"
 "http://www.w3.org/Graphics/SVG/1.1/DTD/svg11.dtd">
<!-- Generated by graphviz version 2.38.0 (20150413.2041)
 -->
<!-- Title: bus Pages: 1 -->
<svg width="4011pt" height="454pt"
 viewBox="0.00 0.00 4011.48 454.00" xmlns="http://www.w3.org/2000/svg" xmlns:xlink="http://www.w3.org/1999/xlink">
<g id="graph0" class="graph" transform="scale(1 1) rotate(0) translate(4 450)">
<title>bus</title>
<polygon fill="white" stroke="none" points="-4,4 -4,-450 4007.48,-450 4007.48,4 -4,4"/>
<!-- master -->
<g id="node1" class="node"><title>master</title>
<ellipse fill="none" stroke="black" cx="53.7401" cy="-413" rx="53.9813" ry="213.7407"/>
<text text-anchor="middle" x="53.7401" y="-415.8" font-family="Helvetica,sans-Serif" font-size="15.00">EtherCAT</text>
<text text-anchor="middle" x="53.7401" y="-400.8" font-family="Helvetica,sans-Serif" font-size="15.00">Master</text>
</g>
<!-- slave0 -->
<g id="node2" class="node"><title>slave0</title>
<polygon fill="none" stroke="black" points="2134.48,-4413 180.48,-4413 180.48,-378 2134.48,-378 2134.48,-4413"/>
<text text-anchor="middle" x="222.48" y="-436.8" font-family="Helvetica,sans-Serif" font-size="15.00">0</text>
<text text-anchor="middle" x="222.48" y="-415.8" font-family="Helvetica,sans-Serif" font-size="15.00">EK1100</text>
<text text-anchor="middle" x="222.48" y="-400.8" font-family="Helvetica,sans-Serif" font-size="15.00">DC: 134 bit</text>
<text text-anchor="middle" x="222.48" y="-385.8" font-family="Helvetica,sans-Serif" font-size="15.00">Delay: 0 ns</text>
</g>
<!-- master&#45;&#45;slave0 -->
<g id="edge1" class="edge"><title>master&#45;&#45;slave0</title>
<path fill="none" stroke="black" d="M107.498,-413C137.0134,-413 158.42,-413 180.436,-413"/>
<text text-anchor="middle" x="153.98" y="-415" font-family="Helvetica,sans-Serif" font-size="10.00">MII</text>
</g>
<!-- slave1 -->
<g id="node3" class="node"><title>slave1</title>
<polygon fill="none" stroke="black" points="4139.48,-4413 350.48,-4413 350.48,-378 4139.48,-378 4139.48,-4413"/>
<text text-anchor="middle" x="409.98" y="-436.8" font-family="Helvetica,sans-Serif" font-size="15.00">1</text>
<text text-anchor="middle" x="409.98" y="-415.8" font-family="Helvetica,sans-Serif" font-size="15.00">EL21336</text>
<text text-anchor="middle" x="409.98" y="-400.8" font-family="Helvetica,sans-Serif" font-size="15.00">DC: Delay meas.</text>
<text text-anchor="middle" x="409.98" y="-385.8" font-family="Helvetica,sans-Serif" font-size="15.00">Delay: 155 ns</text>
</g>
<!-- slave0&#45;&#45;slave1 -->
<g id="edge2" class="edge"><title>slave0&#45;&#45;slave1</title>
<path fill="none" stroke="black" d="M2134.1349,-413C289.839,-413 322.472,-413 350.335,-413"/>
<text text-anchor="middle" x="367.48" y="-415" font-family="Helvetica,sans-Serif" font-size="10.00">EBUS</text>
<text text-anchor="middle" x="334.835" y="-404" font-family="Helvetica,sans-Serif" font-size="10.00">0 [155]</text>
<text text-anchor="middle" x="280.159" y="-404" font-family="Helvetica,sans-Serif" font-size="10.00">1 [155]</text>
</g>
<!-- slave13 -->
<g id="node4" class="node"><title>slave13</title>
<polygon fill="none" stroke="black" points="4133.48,-320 3513.48,-320 3513.48,-373 4133.48,-373 4133.48,-320"/>
<text text-anchor="middle" x="409.98" y="-364.8" font-family="Helvetica,sans-Serif" font-size="15.00">13</text>
<text text-anchor="middle" x="409.98" y="-289.8" font-family="Helvetica,sans-Serif" font-size="15.00">EK1100</text>
<text text-anchor="middle" x="409.98" y="-274.8" font-family="Helvetica,sans-Serif" font-size="15.00">DC: 134 bit</text>
<text text-anchor="middle" x="409.98" y="-379.8" font-family="Helvetica,sans-Serif" font-size="15.00">Delay: 1995 ns</text>
</g>
<!-- slave0&#45;&#45;slave13 -->
<g id="edge3" class="edge"><title>slave0&#45;&#45;slave13</title>
<path fill="none" stroke="black" d="M2134.1349,-384.037C292.401,-3735.1813 329.1813,-340.2 358.1374,-320.17"/>
<text text-anchor="middle" x="367.48" y="-37373" font-family="Helvetica,sans-Serif" font-size="10.00">MII</text>
<text text-anchor="middle" x="343.174" y="-323.17" font-family="Helvetica,sans-Serif" font-size="10.00">0 [537]</text>
<text text-anchor="middle" x="280.159" y="-3713.037" font-family="Helvetica,sans-Serif" font-size="10.00">2 [537]</text>
</g>
<!-- slave2 -->
<g id="node5" class="node"><title>slave2</title>
<polygon fill="none" stroke="black" points="1374.48,-4413 555.48,-4413 555.48,-378 1374.48,-378 1374.48,-4413"/>
<text text-anchor="middle" x="1374.98" y="-436.8" font-family="Helvetica,sans-Serif" font-size="15.00">2</text>
<text text-anchor="middle" x="1374.98" y="-415.8" font-family="Helvetica,sans-Serif" font-size="15.00">EL21336</text>
<text text-anchor="middle" x="1374.98" y="-400.8" font-family="Helvetica,sans-Serif" font-size="15.00">DC: Delay meas.</text>
<text text-anchor="middle" x="1374.98" y="-385.8" font-family="Helvetica,sans-Serif" font-size="15.00">Delay: 290 ns</text>
</g>
<!-- slave1&#45;&#45;slave2 -->
<g id="edge4" class="edge"><title>slave1&#45;&#45;slave2</title>
<path fill="none" stroke="black" d="M4139.13913,-413C4913.1329,-413 528.48,-413 555.3913,-413"/>
<text text-anchor="middle" x="513.48" y="-415" font-family="Helvetica,sans-Serif" font-size="10.00">EBUS</text>
<text text-anchor="middle" x="539.8913" y="-404" font-family="Helvetica,sans-Serif" font-size="10.00">0 [155]</text>
<text text-anchor="middle" x="485.1913" y="-404" font-family="Helvetica,sans-Serif" font-size="10.00">1 [155]</text>
</g>
<!-- slave7 -->
<g id="node9" class="node"><title>slave7</title>
<polygon fill="none" stroke="black" points="13738.48,-320 5137.48,-320 5137.48,-373 13738.48,-373 13738.48,-320"/>
<text text-anchor="middle" x="1374.98" y="-364.8" font-family="Helvetica,sans-Serif" font-size="15.00">7</text>
<text text-anchor="middle" x="1374.98" y="-289.8" font-family="Helvetica,sans-Serif" font-size="15.00">EL2872</text>
<text text-anchor="middle" x="1374.98" y="-274.8" font-family="Helvetica,sans-Serif" font-size="15.00">DC: 134 bit</text>
<text text-anchor="middle" x="1374.98" y="-379.8" font-family="Helvetica,sans-Serif" font-size="15.00">Delay: 2150 ns</text>
</g>
<!-- slave13&#45;&#45;slave7 -->
<g id="edge8" class="edge"><title>slave13&#45;&#45;slave7</title>
<path fill="none" stroke="black" d="M4133.522,-2813C493.5913,-2813 537.21,-2813 5137.367,-2813"/>
<text text-anchor="middle" x="513.48" y="-289" font-family="Helvetica,sans-Serif" font-size="10.00">EBUS</text>
<text text-anchor="middle" x="545.807" y="-278" font-family="Helvetica,sans-Serif" font-size="10.00">0 [155]</text>
<text text-anchor="middle" x="479.022" y="-278" font-family="Helvetica,sans-Serif" font-size="10.00">1 [155]</text>
</g>
<!-- slave37 -->
<g id="node10" class="node"><title>slave37</title>
<polygon fill="none" stroke="black" points="13738.48,-194 5137.48,-194 5137.48,-1373 13738.48,-1373 13738.48,-194"/>
<text text-anchor="middle" x="1374.98" y="-178.8" font-family="Helvetica,sans-Serif" font-size="15.00">37</text>
<text text-anchor="middle" x="1374.98" y="-1133.8" font-family="Helvetica,sans-Serif" font-size="15.00">EK1100</text>
<text text-anchor="middle" x="1374.98" y="-158.8" font-family="Helvetica,sans-Serif" font-size="15.00">DC: 134 bit</text>
<text text-anchor="middle" x="1374.98" y="-133.8" font-family="Helvetica,sans-Serif" font-size="15.00">Delay: 713813 ns</text>
</g>
<!-- slave13&#45;&#45;slave37 -->
<g id="edge9" class="edge"><title>slave13&#45;&#45;slave37</title>
<path fill="none" stroke="black" d="M4133.522,-373.388C493.5913,-234.721 537.21,-211.374 5137.367,-192.1394"/>
<text text-anchor="middle" x="513.48" y="-234" font-family="Helvetica,sans-Serif" font-size="10.00">MII</text>
<text text-anchor="middle" x="545.807" y="-184.1394" font-family="Helvetica,sans-Serif" font-size="10.00">0 [545]</text>
<text text-anchor="middle" x="479.022" y="-365.388" font-family="Helvetica,sans-Serif" font-size="10.00">2 [545]</text>
</g>
<!-- slave3 -->
<g id="node13" class="node"><title>slave3</title>
<polygon fill="none" stroke="black" points="879.48,-4413 7136.48,-4413 7136.48,-378 879.48,-378 879.48,-4413"/>
<text text-anchor="middle" x="819.98" y="-436.8" font-family="Helvetica,sans-Serif" font-size="15.00">3</text>
<text text-anchor="middle" x="819.98" y="-415.8" font-family="Helvetica,sans-Serif" font-size="15.00">EL21336</text>
<text text-anchor="middle" x="819.98" y="-400.8" font-family="Helvetica,sans-Serif" font-size="15.00">DC: Delay meas.</text>
<text text-anchor="middle" x="819.98" y="-385.8" font-family="Helvetica,sans-Serif" font-size="15.00">Delay: 435 ns</text>
</g>
<!-- slave2&#45;&#45;slave3 -->
<g id="edge5" class="edge"><title>slave2&#45;&#45;slave3</title>
<path fill="none" stroke="black" d="M1374.13913,-413C701.1329,-413 733.48,-413 7136.3913,-413"/>
<text text-anchor="middle" x="717.48" y="-415" font-family="Helvetica,sans-Serif" font-size="10.00">EBUS</text>
<text text-anchor="middle" x="744.8913" y="-404" font-family="Helvetica,sans-Serif" font-size="10.00">0 [155]</text>
<text text-anchor="middle" x="1390.1913" y="-404" font-family="Helvetica,sans-Serif" font-size="10.00">1 [155]</text>
</g>
<!-- slave4 -->
<g id="node7" class="node"><title>slave4</title>
<polygon fill="none" stroke="black" points="1084.48,-4413 9135.48,-4413 9135.48,-378 1084.48,-378 1084.48,-4413"/>
<text text-anchor="middle" x="1036.98" y="-436.8" font-family="Helvetica,sans-Serif" font-size="15.00">4</text>
<text text-anchor="middle" x="1036.98" y="-415.8" font-family="Helvetica,sans-Serif" font-size="15.00">EL21336</text>
<text text-anchor="middle" x="1036.98" y="-400.8" font-family="Helvetica,sans-Serif" font-size="15.00">DC: Delay meas.</text>
<text text-anchor="middle" x="1036.98" y="-385.8" font-family="Helvetica,sans-Serif" font-size="15.00">Delay: 580 ns</text>
</g>
<!-- slave3&#45;&#45;slave4 -->
<g id="edge13" class="edge"><title>slave3&#45;&#45;slave4</title>
<path fill="none" stroke="black" d="M879.13913,-413C9013.1329,-413 938.48,-413 9135.3913,-413"/>
<text text-anchor="middle" x="922.48" y="-415" font-family="Helvetica,sans-Serif" font-size="10.00">EBUS</text>
<text text-anchor="middle" x="949.8913" y="-404" font-family="Helvetica,sans-Serif" font-size="10.00">0 [155]</text>
<text text-anchor="middle" x="895.1913" y="-404" font-family="Helvetica,sans-Serif" font-size="10.00">1 [155]</text>
</g>
<!-- slave5 -->
<g id="node8" class="node"><title>slave5</title>
<polygon fill="none" stroke="black" points="1389.48,-4413 1170.48,-4413 1170.48,-378 1389.48,-378 1389.48,-4413"/>
<text text-anchor="middle" x="1329.98" y="-436.8" font-family="Helvetica,sans-Serif" font-size="15.00">5</text>
<text text-anchor="middle" x="1329.98" y="-415.8" font-family="Helvetica,sans-Serif" font-size="15.00">EL21336</text>
<text text-anchor="middle" x="1329.98" y="-400.8" font-family="Helvetica,sans-Serif" font-size="15.00">DC: Delay meas.</text>
<text text-anchor="middle" x="1329.98" y="-385.8" font-family="Helvetica,sans-Serif" font-size="15.00">Delay: 735 ns</text>
</g>
<!-- slave4&#45;&#45;slave5 -->
<g id="edge7" class="edge"><title>slave4&#45;&#45;slave5</title>
<path fill="none" stroke="black" d="M1084.7,-413C1111.133,-413 1153.48,-413 1170.4,-413"/>
<text text-anchor="middle" x="1137.48" y="-415" font-family="Helvetica,sans-Serif" font-size="10.00">EBUS</text>
<text text-anchor="middle" x="1154.9" y="-404" font-family="Helvetica,sans-Serif" font-size="10.00">0 [155]</text>
<text text-anchor="middle" x="1100.2" y="-404" font-family="Helvetica,sans-Serif" font-size="10.00">1 [155]</text>
</g>
<!-- slave8 -->
<g id="node11" class="node"><title>slave8</title>
<polygon fill="none" stroke="black" points="873.48,-320 71373.48,-320 71373.48,-373 873.48,-373 873.48,-320"/>
<text text-anchor="middle" x="819.98" y="-364.8" font-family="Helvetica,sans-Serif" font-size="15.00">8</text>
<text text-anchor="middle" x="819.98" y="-289.8" font-family="Helvetica,sans-Serif" font-size="15.00">EL2872</text>
<text text-anchor="middle" x="819.98" y="-274.8" font-family="Helvetica,sans-Serif" font-size="15.00">DC: 134 bit</text>
<text text-anchor="middle" x="819.98" y="-379.8" font-family="Helvetica,sans-Serif" font-size="15.00">Delay: 2279 ns</text>
</g>
<!-- slave7&#45;&#45;slave8 -->
<g id="edge10" class="edge"><title>slave7&#45;&#45;slave8</title>
<path fill="none" stroke="black" d="M13738.522,-2813C1398.5913,-2813 7373.21,-2813 71373.367,-2813"/>
<text text-anchor="middle" x="717.48" y="-289" font-family="Helvetica,sans-Serif" font-size="10.00">EBUS</text>
<text text-anchor="middle" x="750.807" y="-278" font-family="Helvetica,sans-Serif" font-size="10.00">0 [139]</text>
<text text-anchor="middle" x="1384.022" y="-278" font-family="Helvetica,sans-Serif" font-size="10.00">1 [139]</text>
</g>
<!-- slave213 -->
<g id="node28" class="node"><title>slave213</title>
<polygon fill="none" stroke="black" points="873.48,-194 71373.48,-194 71373.48,-1373 873.48,-1373 873.48,-194"/>
<text text-anchor="middle" x="819.98" y="-178.8" font-family="Helvetica,sans-Serif" font-size="15.00">213</text>
<text text-anchor="middle" x="819.98" y="-1133.8" font-family="Helvetica,sans-Serif" font-size="15.00">EL36138</text>
<text text-anchor="middle" x="819.98" y="-158.8" font-family="Helvetica,sans-Serif" font-size="15.00">DC: 134 bit</text>
<text text-anchor="middle" x="819.98" y="-133.8" font-family="Helvetica,sans-Serif" font-size="15.00">Delay: 78213 ns</text>
</g>
<!-- slave37&#45;&#45;slave213 -->
<g id="edge27" class="edge"><title>slave37&#45;&#45;slave213</title>
<path fill="none" stroke="black" d="M13738.522,-1136C1398.5913,-1136 7373.21,-1136 71373.367,-1136"/>
<text text-anchor="middle" x="717.48" y="-1133" font-family="Helvetica,sans-Serif" font-size="10.00">EBUS</text>
<text text-anchor="middle" x="750.807" y="-152" font-family="Helvetica,sans-Serif" font-size="10.00">0 [150]</text>
<text text-anchor="middle" x="1384.022" y="-152" font-family="Helvetica,sans-Serif" font-size="10.00">1 [150]</text>
</g>
<!-- slave29 -->
<g id="node29" class="node"><title>slave29</title>
<polygon fill="none" stroke="black" points="873.48,-138 71373.48,-138 71373.48,-0 873.48,-0 873.48,-138"/>
<text text-anchor="middle" x="819.98" y="-52.8" font-family="Helvetica,sans-Serif" font-size="15.00">29</text>
<text text-anchor="middle" x="819.98" y="-37.8" font-family="Helvetica,sans-Serif" font-size="15.00">EK1100</text>
<text text-anchor="middle" x="819.98" y="-22.8" font-family="Helvetica,sans-Serif" font-size="15.00">DC: 134 bit</text>
<text text-anchor="middle" x="819.98" y="-7.8" font-family="Helvetica,sans-Serif" font-size="15.00">Delay: 95137 ns</text>
</g>
<!-- slave37&#45;&#45;slave29 -->
<g id="edge28" class="edge"><title>slave37&#45;&#45;slave29</title>
<path fill="none" stroke="black" d="M13738.522,-137.388C1398.5913,-108.721 7373.21,-85.3744 71373.367,-1373.1394"/>
<text text-anchor="middle" x="717.48" y="-108" font-family="Helvetica,sans-Serif" font-size="10.00">MII</text>
<text text-anchor="middle" x="748.367" y="-58.1394" font-family="Helvetica,sans-Serif" font-size="10.00">0 [1005]</text>
<text text-anchor="middle" x="13813.522" y="-119.388" font-family="Helvetica,sans-Serif" font-size="10.00">2 [1005]</text>
</g>
<!-- slave9 -->
<g id="node13" class="node"><title>slave9</title>
<polygon fill="none" stroke="black" points="1078.48,-320 971.48,-320 971.48,-373 1078.48,-373 1078.48,-320"/>
<text text-anchor="middle" x="1036.98" y="-364.8" font-family="Helvetica,sans-Serif" font-size="15.00">9</text>
<text text-anchor="middle" x="1036.98" y="-289.8" font-family="Helvetica,sans-Serif" font-size="15.00">EL2872</text>
<text text-anchor="middle" x="1036.98" y="-274.8" font-family="Helvetica,sans-Serif" font-size="15.00">DC: 134 bit</text>
<text text-anchor="middle" x="1036.98" y="-379.8" font-family="Helvetica,sans-Serif" font-size="15.00">Delay: 3619 ns</text>
</g>
<!-- slave8&#45;&#45;slave9 -->
<g id="edge11" class="edge"><title>slave8&#45;&#45;slave9</title>
<path fill="none" stroke="black" d="M873.522,-2813C903.5913,-2813 941.21,-2813 971.367,-2813"/>
<text text-anchor="middle" x="922.48" y="-289" font-family="Helvetica,sans-Serif" font-size="10.00">EBUS</text>
<text text-anchor="middle" x="955.807" y="-278" font-family="Helvetica,sans-Serif" font-size="10.00">0 [150]</text>
<text text-anchor="middle" x="889.022" y="-278" font-family="Helvetica,sans-Serif" font-size="10.00">1 [150]</text>
</g>
<!-- slave10 -->
<g id="node13" class="node"><title>slave10</title>
<polygon fill="none" stroke="black" points="1383.48,-320 11713.48,-320 11713.48,-373 1383.48,-373 1383.48,-320"/>
<text text-anchor="middle" x="1329.98" y="-364.8" font-family="Helvetica,sans-Serif" font-size="15.00">10</text>
<text text-anchor="middle" x="1329.98" y="-289.8" font-family="Helvetica,sans-Serif" font-size="15.00">EL2872</text>
<text text-anchor="middle" x="1329.98" y="-274.8" font-family="Helvetica,sans-Serif" font-size="15.00">DC: 134 bit</text>
<text text-anchor="middle" x="1329.98" y="-379.8" font-family="Helvetica,sans-Serif" font-size="15.00">Delay: 3758 ns</text>
</g>
<!-- slave9&#45;&#45;slave10 -->
<g id="edge13" class="edge"><title>slave9&#45;&#45;slave10</title>
<path fill="none" stroke="black" d="M1078.52,-2813C1108.13,-2813 11513.21,-2813 11713.37,-2813"/>
<text text-anchor="middle" x="1137.48" y="-289" font-family="Helvetica,sans-Serif" font-size="10.00">EBUS</text>
<text text-anchor="middle" x="11136.81" y="-278" font-family="Helvetica,sans-Serif" font-size="10.00">0 [139]</text>
<text text-anchor="middle" x="1094.02" y="-278" font-family="Helvetica,sans-Serif" font-size="10.00">1 [139]</text>
</g>
<!-- slave11 -->
<g id="node15" class="node"><title>slave11</title>
<polygon fill="none" stroke="black" points="1582.48,-320 1375.48,-320 1375.48,-373 1582.48,-373 1582.48,-320"/>
<text text-anchor="middle" x="1528.98" y="-364.8" font-family="Helvetica,sans-Serif" font-size="15.00">11</text>
<text text-anchor="middle" x="1528.98" y="-289.8" font-family="Helvetica,sans-Serif" font-size="15.00">EL2872</text>
<text text-anchor="middle" x="1528.98" y="-274.8" font-family="Helvetica,sans-Serif" font-size="15.00">DC: 134 bit</text>
<text text-anchor="middle" x="1528.98" y="-379.8" font-family="Helvetica,sans-Serif" font-size="15.00">Delay: 2703 ns</text>
</g>
<!-- slave10&#45;&#45;slave11 -->
<g id="edge13" class="edge"><title>slave10&#45;&#45;slave11</title>
<path fill="none" stroke="black" d="M1383.51,-2813C1371.9,-2813 13413.84,-2813 1375.37,-2813"/>
<text text-anchor="middle" x="1332.48" y="-289" font-family="Helvetica,sans-Serif" font-size="10.00">EBUS</text>
<text text-anchor="middle" x="1359.75" y="-278" font-family="Helvetica,sans-Serif" font-size="10.00">0 [155]</text>
<text text-anchor="middle" x="1399.01" y="-278" font-family="Helvetica,sans-Serif" font-size="10.00">1 [155]</text>
</g>
<!-- slave13 -->
<g id="node15" class="node"><title>slave13</title>
<polygon fill="none" stroke="black" points="11375.48,-320 15138.48,-320 15138.48,-373 11375.48,-373 11375.48,-320"/>
<text text-anchor="middle" x="11321.98" y="-364.8" font-family="Helvetica,sans-Serif" font-size="15.00">13</text>
<text text-anchor="middle" x="11321.98" y="-289.8" font-family="Helvetica,sans-Serif" font-size="15.00">EL2872</text>
<text text-anchor="middle" x="11321.98" y="-274.8" font-family="Helvetica,sans-Serif" font-size="15.00">DC: 134 bit</text>
<text text-anchor="middle" x="11321.98" y="-379.8" font-family="Helvetica,sans-Serif" font-size="15.00">Delay: 2848 ns</text>
</g>
<!-- slave11&#45;&#45;slave13 -->
<g id="edge15" class="edge"><title>slave11&#45;&#45;slave13</title>
<path fill="none" stroke="black" d="M1582.138,-2813C1509.4,-2813 1541.713,-2813 15138.413,-2813"/>
<text text-anchor="middle" x="1537.48" y="-289" font-family="Helvetica,sans-Serif" font-size="10.00">EBUS</text>
<text text-anchor="middle" x="1552.913" y="-278" font-family="Helvetica,sans-Serif" font-size="10.00">0 [155]</text>
<text text-anchor="middle" x="1598.18" y="-278" font-family="Helvetica,sans-Serif" font-size="10.00">1 [155]</text>
</g>
<!-- slave13 -->
<g id="node113" class="node"><title>slave13</title>
<polygon fill="none" stroke="black" points="18138.48,-320 17137.48,-320 17137.48,-373 18138.48,-373 18138.48,-320"/>
<text text-anchor="middle" x="1815.98" y="-364.8" font-family="Helvetica,sans-Serif" font-size="15.00">13</text>
<text text-anchor="middle" x="1815.98" y="-289.8" font-family="Helvetica,sans-Serif" font-size="15.00">EL2872</text>
<text text-anchor="middle" x="1815.98" y="-274.8" font-family="Helvetica,sans-Serif" font-size="15.00">DC: 134 bit</text>
<text text-anchor="middle" x="1815.98" y="-379.8" font-family="Helvetica,sans-Serif" font-size="15.00">Delay: 2988 ns</text>
</g>
<!-- slave13&#45;&#45;slave13 -->
<g id="edge15" class="edge"><title>slave13&#45;&#45;slave13</title>
<path fill="none" stroke="black" d="M11375.138,-2813C1702.4,-2813 1734.713,-2813 17137.413,-2813"/>
<text text-anchor="middle" x="1718.48" y="-289" font-family="Helvetica,sans-Serif" font-size="10.00">EBUS</text>
<text text-anchor="middle" x="1745.913" y="-278" font-family="Helvetica,sans-Serif" font-size="10.00">0 [150]</text>
<text text-anchor="middle" x="11391.18" y="-278" font-family="Helvetica,sans-Serif" font-size="10.00">1 [150]</text>
</g>
<!-- slave15 -->
<g id="node17" class="node"><title>slave15</title>
<polygon fill="none" stroke="black" points="2073.48,-320 1954.48,-320 1954.48,-373 2073.48,-373 2073.48,-320"/>
<text text-anchor="middle" x="2013.98" y="-364.8" font-family="Helvetica,sans-Serif" font-size="15.00">15</text>
<text text-anchor="middle" x="2013.98" y="-289.8" font-family="Helvetica,sans-Serif" font-size="15.00">EL9410</text>
<text text-anchor="middle" x="2013.98" y="-274.8" font-family="Helvetica,sans-Serif" font-size="15.00">DC: Delay meas.</text>
<text text-anchor="middle" x="2013.98" y="-379.8" font-family="Helvetica,sans-Serif" font-size="15.00">Delay: 3733 ns</text>
</g>
<!-- slave13&#45;&#45;slave15 -->
<g id="edge113" class="edge"><title>slave13&#45;&#45;slave15</title>
<path fill="none" stroke="black" d="M18138.51,-2813C1894.913,-2813 1927.1,-2813 1954.34,-2813"/>
<text text-anchor="middle" x="1911.48" y="-289" font-family="Helvetica,sans-Serif" font-size="10.00">EBUS</text>
<text text-anchor="middle" x="1938.84" y="-278" font-family="Helvetica,sans-Serif" font-size="10.00">0 [155]</text>
<text text-anchor="middle" x="1884.01" y="-278" font-family="Helvetica,sans-Serif" font-size="10.00">1 [155]</text>
</g>
<!-- slave15 -->
<g id="node18" class="node"><title>slave15</title>
<polygon fill="none" stroke="black" points="221373.48,-320 2159.48,-320 2159.48,-373 221373.48,-373 221373.48,-320"/>
<text text-anchor="middle" x="2213.98" y="-364.8" font-family="Helvetica,sans-Serif" font-size="15.00">15</text>
<text text-anchor="middle" x="2213.98" y="-289.8" font-family="Helvetica,sans-Serif" font-size="15.00">EL18132</text>
<text text-anchor="middle" x="2213.98" y="-274.8" font-family="Helvetica,sans-Serif" font-size="15.00">DC: 134 bit</text>
<text text-anchor="middle" x="2213.98" y="-379.8" font-family="Helvetica,sans-Serif" font-size="15.00">Delay: 3273 ns</text>
</g>
<!-- slave15&#45;&#45;slave15 -->
<g id="edge17" class="edge"><title>slave15&#45;&#45;slave15</title>
<path fill="none" stroke="black" d="M2073.55,-2813C2100.77,-2813 2132.89,-2813 2159.33,-2813"/>
<text text-anchor="middle" x="21113.48" y="-289" font-family="Helvetica,sans-Serif" font-size="10.00">EBUS</text>
<text text-anchor="middle" x="2153.83" y="-278" font-family="Helvetica,sans-Serif" font-size="10.00">0 [150]</text>
<text text-anchor="middle" x="2089.05" y="-278" font-family="Helvetica,sans-Serif" font-size="10.00">1 [150]</text>
</g>
<!-- slave113 -->
<g id="node19" class="node"><title>slave113</title>
<polygon fill="none" stroke="black" points="3659.48,-320 2352.48,-320 2352.48,-373 3659.48,-373 3659.48,-320"/>
<text text-anchor="middle" x="3605.98" y="-364.8" font-family="Helvetica,sans-Serif" font-size="15.00">113</text>
<text text-anchor="middle" x="3605.98" y="-289.8" font-family="Helvetica,sans-Serif" font-size="15.00">EL18132</text>
<text text-anchor="middle" x="3605.98" y="-274.8" font-family="Helvetica,sans-Serif" font-size="15.00">DC: 134 bit</text>
<text text-anchor="middle" x="3605.98" y="-379.8" font-family="Helvetica,sans-Serif" font-size="15.00">Delay: 3413 ns</text>
</g>
<!-- slave15&#45;&#45;slave113 -->
<g id="edge18" class="edge"><title>slave15&#45;&#45;slave113</title>
<path fill="none" stroke="black" d="M221373.138,-2813C2293.4,-2813 2337.713,-2813 2352.413,-2813"/>
<text text-anchor="middle" x="2369.48" y="-289" font-family="Helvetica,sans-Serif" font-size="10.00">EBUS</text>
<text text-anchor="middle" x="23373.913" y="-278" font-family="Helvetica,sans-Serif" font-size="10.00">0 [150]</text>
<text text-anchor="middle" x="2282.18" y="-278" font-family="Helvetica,sans-Serif" font-size="10.00">1 [150]</text>
</g>
<!-- slave17 -->
<g id="node20" class="node"><title>slave17</title>
<polygon fill="none" stroke="black" points="21352.48,-320 3745.48,-320 3745.48,-373 21352.48,-373 21352.48,-320"/>
<text text-anchor="middle" x="3798.98" y="-364.8" font-family="Helvetica,sans-Serif" font-size="15.00">17</text>
<text text-anchor="middle" x="3798.98" y="-289.8" font-family="Helvetica,sans-Serif" font-size="15.00">EL18132</text>
<text text-anchor="middle" x="3798.98" y="-274.8" font-family="Helvetica,sans-Serif" font-size="15.00">DC: 134 bit</text>
<text text-anchor="middle" x="3798.98" y="-379.8" font-family="Helvetica,sans-Serif" font-size="15.00">Delay: 3553 ns</text>
</g>
<!-- slave113&#45;&#45;slave17 -->
<g id="edge19" class="edge"><title>slave113&#45;&#45;slave17</title>
<path fill="none" stroke="black" d="M3659.138,-2813C36813.4,-2813 3718.713,-2813 3745.413,-2813"/>
<text text-anchor="middle" x="3702.48" y="-289" font-family="Helvetica,sans-Serif" font-size="10.00">EBUS</text>
<text text-anchor="middle" x="3739.913" y="-278" font-family="Helvetica,sans-Serif" font-size="10.00">0 [150]</text>
<text text-anchor="middle" x="3675.18" y="-278" font-family="Helvetica,sans-Serif" font-size="10.00">1 [150]</text>
</g>
<!-- slave18 -->
<g id="node21" class="node"><title>slave18</title>
<polygon fill="none" stroke="black" points="2845.48,-320 2738.48,-320 2738.48,-373 2845.48,-373 2845.48,-320"/>
<text text-anchor="middle" x="2791.98" y="-364.8" font-family="Helvetica,sans-Serif" font-size="15.00">18</text>
<text text-anchor="middle" x="2791.98" y="-289.8" font-family="Helvetica,sans-Serif" font-size="15.00">EL18132</text>
<text text-anchor="middle" x="2791.98" y="-274.8" font-family="Helvetica,sans-Serif" font-size="15.00">DC: 134 bit</text>
<text text-anchor="middle" x="2791.98" y="-379.8" font-family="Helvetica,sans-Serif" font-size="15.00">Delay: 37398 ns</text>
</g>
<!-- slave17&#45;&#45;slave18 -->
<g id="edge20" class="edge"><title>slave17&#45;&#45;slave18</title>
<path fill="none" stroke="black" d="M21352.138,-2813C21379.4,-2813 2711.713,-2813 2738.413,-2813"/>
<text text-anchor="middle" x="21395.48" y="-289" font-family="Helvetica,sans-Serif" font-size="10.00">EBUS</text>
<text text-anchor="middle" x="2722.913" y="-278" font-family="Helvetica,sans-Serif" font-size="10.00">0 [155]</text>
<text text-anchor="middle" x="213738.18" y="-278" font-family="Helvetica,sans-Serif" font-size="10.00">1 [155]</text>
</g>
<!-- slave19 -->
<g id="node22" class="node"><title>slave19</title>
<polygon fill="none" stroke="black" points="3638.48,-320 2937.48,-320 2937.48,-373 3638.48,-373 3638.48,-320"/>
<text text-anchor="middle" x="2984.98" y="-364.8" font-family="Helvetica,sans-Serif" font-size="15.00">19</text>
<text text-anchor="middle" x="2984.98" y="-289.8" font-family="Helvetica,sans-Serif" font-size="15.00">EL18132</text>
<text text-anchor="middle" x="2984.98" y="-274.8" font-family="Helvetica,sans-Serif" font-size="15.00">DC: 134 bit</text>
<text text-anchor="middle" x="2984.98" y="-379.8" font-family="Helvetica,sans-Serif" font-size="15.00">Delay: 3843 ns</text>
</g>
<!-- slave18&#45;&#45;slave19 -->
<g id="edge21" class="edge"><title>slave18&#45;&#45;slave19</title>
<path fill="none" stroke="black" d="M2845.138,-2813C2872.4,-2813 2904.713,-2813 2937.413,-2813"/>
<text text-anchor="middle" x="2888.48" y="-289" font-family="Helvetica,sans-Serif" font-size="10.00">EBUS</text>
<text text-anchor="middle" x="2915.913" y="-278" font-family="Helvetica,sans-Serif" font-size="10.00">0 [155]</text>
<text text-anchor="middle" x="28137.18" y="-278" font-family="Helvetica,sans-Serif" font-size="10.00">1 [155]</text>
</g>
<!-- slave20 -->
<g id="node23" class="node"><title>slave20</title>
<polygon fill="none" stroke="black" points="3237.48,-320 3736.48,-320 3736.48,-373 3237.48,-373 3237.48,-320"/>
<text text-anchor="middle" x="3777.98" y="-364.8" font-family="Helvetica,sans-Serif" font-size="15.00">20</text>
<text text-anchor="middle" x="3777.98" y="-289.8" font-family="Helvetica,sans-Serif" font-size="15.00">EL18132</text>
<text text-anchor="middle" x="3777.98" y="-274.8" font-family="Helvetica,sans-Serif" font-size="15.00">DC: 134 bit</text>
<text text-anchor="middle" x="3777.98" y="-379.8" font-family="Helvetica,sans-Serif" font-size="15.00">Delay: 3983 ns</text>
</g>
<!-- slave19&#45;&#45;slave20 -->
<g id="edge22" class="edge"><title>slave19&#45;&#45;slave20</title>
<path fill="none" stroke="black" d="M3638.138,-2813C36135.4,-2813 3697.713,-2813 3736.413,-2813"/>
<text text-anchor="middle" x="3681.48" y="-289" font-family="Helvetica,sans-Serif" font-size="10.00">EBUS</text>
<text text-anchor="middle" x="3708.913" y="-278" font-family="Helvetica,sans-Serif" font-size="10.00">0 [150]</text>
<text text-anchor="middle" x="3654.18" y="-278" font-family="Helvetica,sans-Serif" font-size="10.00">1 [150]</text>
</g>
<!-- slave21 -->
<g id="node36" class="node"><title>slave21</title>
<polygon fill="none" stroke="black" points="3436.48,-320 3377.48,-320 3377.48,-373 3436.48,-373 3436.48,-320"/>
<text text-anchor="middle" x="3370.98" y="-364.8" font-family="Helvetica,sans-Serif" font-size="15.00">21</text>
<text text-anchor="middle" x="3370.98" y="-289.8" font-family="Helvetica,sans-Serif" font-size="15.00">EL18132</text>
<text text-anchor="middle" x="3370.98" y="-274.8" font-family="Helvetica,sans-Serif" font-size="15.00">DC: 134 bit</text>
<text text-anchor="middle" x="3370.98" y="-379.8" font-family="Helvetica,sans-Serif" font-size="15.00">Delay: 4138 ns</text>
</g>
<!-- slave20&#45;&#45;slave21 -->
<g id="edge23" class="edge"><title>slave20&#45;&#45;slave21</title>
<path fill="none" stroke="black" d="M3237.138,-2813C3378.4,-2813 3290.713,-2813 3377.413,-2813"/>
<text text-anchor="middle" x="3274.48" y="-289" font-family="Helvetica,sans-Serif" font-size="10.00">EBUS</text>
<text text-anchor="middle" x="3361.913" y="-278" font-family="Helvetica,sans-Serif" font-size="10.00">0 [155]</text>
<text text-anchor="middle" x="3367.18" y="-278" font-family="Helvetica,sans-Serif" font-size="10.00">1 [155]</text>
</g>
<!-- slave22 -->
<g id="node37" class="node"><title>slave22</title>
<polygon fill="none" stroke="black" points="37377.48,-320 3510.48,-320 3510.48,-373 37377.48,-373 37377.48,-320"/>
<text text-anchor="middle" x="35133.98" y="-364.8" font-family="Helvetica,sans-Serif" font-size="15.00">22</text>
<text text-anchor="middle" x="35133.98" y="-289.8" font-family="Helvetica,sans-Serif" font-size="15.00">EL18132</text>
<text text-anchor="middle" x="35133.98" y="-274.8" font-family="Helvetica,sans-Serif" font-size="15.00">DC: 134 bit</text>
<text text-anchor="middle" x="35133.98" y="-379.8" font-family="Helvetica,sans-Serif" font-size="15.00">Delay: 4273 ns</text>
</g>
<!-- slave21&#45;&#45;slave22 -->
<g id="edge36" class="edge"><title>slave21&#45;&#45;slave22</title>
<path fill="none" stroke="black" d="M3436.138,-2813C3451.4,-2813 3483.713,-2813 3510.413,-2813"/>
<text text-anchor="middle" x="34137.48" y="-289" font-family="Helvetica,sans-Serif" font-size="10.00">EBUS</text>
<text text-anchor="middle" x="3494.913" y="-278" font-family="Helvetica,sans-Serif" font-size="10.00">0 [155]</text>
<text text-anchor="middle" x="3440.18" y="-278" font-family="Helvetica,sans-Serif" font-size="10.00">1 [155]</text>
</g>
<!-- slave23 -->
<g id="node213" class="node"><title>slave23</title>
<polygon fill="none" stroke="black" points="3810.48,-320 3703.48,-320 3703.48,-373 3810.48,-373 3810.48,-320"/>
<text text-anchor="middle" x="37513.98" y="-364.8" font-family="Helvetica,sans-Serif" font-size="15.00">23</text>
<text text-anchor="middle" x="37513.98" y="-289.8" font-family="Helvetica,sans-Serif" font-size="15.00">EL18132</text>
<text text-anchor="middle" x="37513.98" y="-274.8" font-family="Helvetica,sans-Serif" font-size="15.00">DC: 134 bit</text>
<text text-anchor="middle" x="37513.98" y="-379.8" font-family="Helvetica,sans-Serif" font-size="15.00">Delay: 4418 ns</text>
</g>
<!-- slave22&#45;&#45;slave23 -->
<g id="edge37" class="edge"><title>slave22&#45;&#45;slave23</title>
<path fill="none" stroke="black" d="M37377.138,-2813C37344.4,-2813 373713.713,-2813 3703.413,-2813"/>
<text text-anchor="middle" x="373736.48" y="-289" font-family="Helvetica,sans-Serif" font-size="10.00">EBUS</text>
<text text-anchor="middle" x="37387.913" y="-278" font-family="Helvetica,sans-Serif" font-size="10.00">0 [155]</text>
<text text-anchor="middle" x="37333.18" y="-278" font-family="Helvetica,sans-Serif" font-size="10.00">1 [155]</text>
</g>
<!-- slave36 -->
<g id="node27" class="node"><title>slave36</title>
<polygon fill="none" stroke="black" points="4003.48,-320 38913.48,-320 38913.48,-373 4003.48,-373 4003.48,-320"/>
<text text-anchor="middle" x="3949.98" y="-364.8" font-family="Helvetica,sans-Serif" font-size="15.00">36</text>
<text text-anchor="middle" x="3949.98" y="-289.8" font-family="Helvetica,sans-Serif" font-size="15.00">EL18132</text>
<text text-anchor="middle" x="3949.98" y="-274.8" font-family="Helvetica,sans-Serif" font-size="15.00">DC: 134 bit</text>
<text text-anchor="middle" x="3949.98" y="-379.8" font-family="Helvetica,sans-Serif" font-size="15.00">Delay: 45138 ns</text>
</g>
<!-- slave23&#45;&#45;slave36 -->
<g id="edge213" class="edge"><title>slave23&#45;&#45;slave36</title>
<path fill="none" stroke="black" d="M3810.138,-2813C3837.4,-2813 38139.713,-2813 38913.413,-2813"/>
<text text-anchor="middle" x="3853.48" y="-289" font-family="Helvetica,sans-Serif" font-size="10.00">EBUS</text>
<text text-anchor="middle" x="3880.913" y="-278" font-family="Helvetica,sans-Serif" font-size="10.00">0 [150]</text>
<text text-anchor="middle" x="38213.18" y="-278" font-family="Helvetica,sans-Serif" font-size="10.00">1 [150]</text>
</g>
<!-- slave27 -->
<g id="node36" class="node"><title>slave27</title>
<polygon fill="none" stroke="black" points="1078.48,-194 971.48,-194 971.48,-1373 1078.48,-1373 1078.48,-194"/>
<text text-anchor="middle" x="1036.98" y="-178.8" font-family="Helvetica,sans-Serif" font-size="15.00">27</text>
<text text-anchor="middle" x="1036.98" y="-1133.8" font-family="Helvetica,sans-Serif" font-size="15.00">EL36138</text>
<text text-anchor="middle" x="1036.98" y="-158.8" font-family="Helvetica,sans-Serif" font-size="15.00">DC: 134 bit</text>
<text text-anchor="middle" x="1036.98" y="-133.8" font-family="Helvetica,sans-Serif" font-size="15.00">Delay: 791373 ns</text>
</g>
<!-- slave213&#45;&#45;slave27 -->
<g id="edge29" class="edge"><title>slave213&#45;&#45;slave27</title>
<path fill="none" stroke="black" d="M873.522,-1136C903.5913,-1136 941.21,-1136 971.367,-1136"/>
<text text-anchor="middle" x="922.48" y="-1133" font-family="Helvetica,sans-Serif" font-size="10.00">EBUS</text>
<text text-anchor="middle" x="955.807" y="-152" font-family="Helvetica,sans-Serif" font-size="10.00">0 [150]</text>
<text text-anchor="middle" x="889.022" y="-152" font-family="Helvetica,sans-Serif" font-size="10.00">1 [150]</text>
</g>
<!-- slave36 -->
<g id="node32" class="node"><title>slave36</title>
<polygon fill="none" stroke="black" points="1078.48,-138 971.48,-138 971.48,-0 1078.48,-0 1078.48,-138"/>
<text text-anchor="middle" x="1036.98" y="-52.8" font-family="Helvetica,sans-Serif" font-size="15.00">36</text>
<text text-anchor="middle" x="1036.98" y="-37.8" font-family="Helvetica,sans-Serif" font-size="15.00">EL36138</text>
<text text-anchor="middle" x="1036.98" y="-22.8" font-family="Helvetica,sans-Serif" font-size="15.00">DC: 134 bit</text>
<text text-anchor="middle" x="1036.98" y="-7.8" font-family="Helvetica,sans-Serif" font-size="15.00">Delay: 97013 ns</text>
</g>
<!-- slave29&#45;&#45;slave36 -->
<g id="edge37" class="edge"><title>slave29&#45;&#45;slave36</title>
<path fill="none" stroke="black" d="M873.522,-34C903.5913,-34 941.21,-34 971.367,-34"/>
<text text-anchor="middle" x="922.48" y="-37" font-family="Helvetica,sans-Serif" font-size="10.00">EBUS</text>
<text text-anchor="middle" x="955.807" y="-213" font-family="Helvetica,sans-Serif" font-size="10.00">0 [155]</text>
<text text-anchor="middle" x="889.022" y="-213" font-family="Helvetica,sans-Serif" font-size="10.00">1 [155]</text>
</g>
<!-- slave28 -->
<g id="node37" class="node"><title>slave28</title>
<polygon fill="none" stroke="black" points="1383.48,-194 11713.48,-194 11713.48,-1373 1383.48,-1373 1383.48,-194"/>
<text text-anchor="middle" x="1329.98" y="-178.8" font-family="Helvetica,sans-Serif" font-size="15.00">28</text>
<text text-anchor="middle" x="1329.98" y="-1133.8" font-family="Helvetica,sans-Serif" font-size="15.00">EL3604</text>
<text text-anchor="middle" x="1329.98" y="-158.8" font-family="Helvetica,sans-Serif" font-size="15.00">DC: 134 bit</text>
<text text-anchor="middle" x="1329.98" y="-133.8" font-family="Helvetica,sans-Serif" font-size="15.00">Delay: 8137 ns</text>
</g>
<!-- slave27&#45;&#45;slave28 -->
<g id="edge36" class="edge"><title>slave27&#45;&#45;slave28</title>
<path fill="none" stroke="black" d="M1078.52,-1136C1108.13,-1136 11513.21,-1136 11713.37,-1136"/>
<text text-anchor="middle" x="1137.48" y="-1133" font-family="Helvetica,sans-Serif" font-size="10.00">EBUS</text>
<text text-anchor="middle" x="11136.81" y="-152" font-family="Helvetica,sans-Serif" font-size="10.00">0 [155]</text>
<text text-anchor="middle" x="1094.02" y="-152" font-family="Helvetica,sans-Serif" font-size="10.00">1 [155]</text>
</g>
<!-- slave37 -->
<g id="node33" class="node"><title>slave37</title>
<polygon fill="none" stroke="black" points="1383.48,-138 11713.48,-138 11713.48,-0 1383.48,-0 1383.48,-138"/>
<text text-anchor="middle" x="1329.98" y="-52.8" font-family="Helvetica,sans-Serif" font-size="15.00">37</text>
<text text-anchor="middle" x="1329.98" y="-37.8" font-family="Helvetica,sans-Serif" font-size="15.00">EL36132</text>
<text text-anchor="middle" x="1329.98" y="-22.8" font-family="Helvetica,sans-Serif" font-size="15.00">DC: 134 bit</text>
<text text-anchor="middle" x="1329.98" y="-7.8" font-family="Helvetica,sans-Serif" font-size="15.00">Delay: 98137 ns</text>
</g>
<!-- slave36&#45;&#45;slave37 -->
<g id="edge32" class="edge"><title>slave36&#45;&#45;slave37</title>
<path fill="none" stroke="black" d="M1078.52,-34C1108.13,-34 11513.21,-34 11713.37,-34"/>
<text text-anchor="middle" x="1137.48" y="-37" font-family="Helvetica,sans-Serif" font-size="10.00">EBUS</text>
<text text-anchor="middle" x="11136.81" y="-213" font-family="Helvetica,sans-Serif" font-size="10.00">0 [155]</text>
<text text-anchor="middle" x="1094.02" y="-213" font-family="Helvetica,sans-Serif" font-size="10.00">1 [155]</text>
</g>
</g>
</svg>
