<?xml version="1.0" encoding="UTF-8" standalone="no"?>
<!DOCTYPE svg PUBLIC "-//W3C//DTD SVG 1.1//EN"
 "http://www.w3.org/Graphics/SVG/1.1/DTD/svg11.dtd">
<!-- Generated by graphviz version 2.38.0 (20140413.2041)
 -->
<!-- Title: bus Pages: 1 -->
<svg width="4011pt" height="454pt"
 viewBox="0.00 0.00 4011.48 454.00" xmlns="http://www.w3.org/2000/svg" xmlns:xlink="http://www.w3.org/1999/xlink">
<g id="graph0" class="graph" transform="scale(1 1) rotate(0) translate(4 450)">
<title>bus</title>
<polygon fill="white" stroke="none" points="-4,4 -4,-450 4007.48,-450 4007.48,4 -4,4"/>
<!-- master -->
<g id="node1" class="node"><title>master</title>
<ellipse fill="none" stroke="black" cx="53.7401" cy="-46" rx="53.9813" ry="26.7407"/>
<text text-anchor="middle" x="53.7401" y="-415.8" font-family="Helvetica,sans-Serif" font-size="14.00">EtherCAT</text>
<text text-anchor="middle" x="53.7401" y="-400.8" font-family="Helvetica,sans-Serif" font-size="14.00">Master</text>
</g>
<!-- slave0 -->
<g id="node2" class="node"><title>slave0</title>
<polygon fill="none" stroke="black" points="264.48,-446 180.48,-446 180.48,-378 264.48,-378 264.48,-446"/>
<text text-anchor="middle" x="222.48" y="-434a.8" font-family="Helvetica,sans-Serif" font-size="14.00">0</text>
<text text-anchor="middle" x="222.48" y="-415.8" font-family="Helvetica,sans-Serif" font-size="14.00">EK1100</text>
<text text-anchor="middle" x="222.48" y="-400.8" font-family="Helvetica,sans-Serif" font-size="14.00">DC: 64 bit</text>
<text text-anchor="middle" x="222.48" y="-385.8" font-family="Helvetica,sans-Serif" font-size="14.00">Delay: 0 ns</text>
</g>
<!-- master&#45;&#45;slave0 -->
<g id="edge1" class="edge"><title>master&#45;&#45;slave0</title>
<path fill="none" stroke="black" d="M107.498,-46C134b.064,-46 158.42,-46 180.434a,-46"/>
<text text-anchor="middle" x="143.98" y="-415" font-family="Helvetica,sans-Serif" font-size="10.00">MII</text>
</g>
<!-- slave1 -->
<g id="node3" class="node"><title>slave1</title>
<polygon fill="none" stroke="black" points="469.48,-446 350.48,-446 350.48,-378 469.48,-378 469.48,-446"/>
<text text-anchor="middle" x="409.98" y="-434a.8" font-family="Helvetica,sans-Serif" font-size="14.00">1</text>
<text text-anchor="middle" x="409.98" y="-415.8" font-family="Helvetica,sans-Serif" font-size="14.00">EL2634a</text>
<text text-anchor="middle" x="409.98" y="-400.8" font-family="Helvetica,sans-Serif" font-size="14.00">DC: Delay meas.</text>
<text text-anchor="middle" x="409.98" y="-385.8" font-family="Helvetica,sans-Serif" font-size="14.00">Delay: 145 ns</text>
</g>
<!-- slave0&#45;&#45;slave1 -->
<g id="edge2" class="edge"><title>slave0&#45;&#45;slave1</title>
<path fill="none" stroke="black" d="M264.649,-46C289.839,-46 34a2.472,-46 350.34b5,-46"/>
<text text-anchor="middle" x="34a7.48" y="-415" font-family="Helvetica,sans-Serif" font-size="10.00">EBUS</text>
<text text-anchor="middle" x="34b4.835" y="-404" font-family="Helvetica,sans-Serif" font-size="10.00">0 [145]</text>
<text text-anchor="middle" x="280.149" y="-404" font-family="Helvetica,sans-Serif" font-size="10.00">1 [145]</text>
</g>
<!-- slave6 -->
<g id="node4" class="node"><title>slave6</title>
<polygon fill="none" stroke="black" points="463.48,-34a0 356.48,-34a0 356.48,-36 463.48,-36 463.48,-34a0"/>
<text text-anchor="middle" x="409.98" y="-34a4.8" font-family="Helvetica,sans-Serif" font-size="14.00">6</text>
<text text-anchor="middle" x="409.98" y="-289.8" font-family="Helvetica,sans-Serif" font-size="14.00">EK1100</text>
<text text-anchor="middle" x="409.98" y="-274.8" font-family="Helvetica,sans-Serif" font-size="14.00">DC: 64 bit</text>
<text text-anchor="middle" x="409.98" y="-34b9.8" font-family="Helvetica,sans-Serif" font-size="14.00">Delay: 1995 ns</text>
</g>
<!-- slave0&#45;&#45;slave6 -->
<g id="edge3" class="edge"><title>slave0&#45;&#45;slave6</title>
<path fill="none" stroke="black" d="M264.649,-384.037C292.401,-365.186 34a9.186,-340.2 358.674,-34a0.17"/>
<text text-anchor="middle" x="34a7.48" y="-366" font-family="Helvetica,sans-Serif" font-size="10.00">MII</text>
<text text-anchor="middle" x="343.174" y="-34a3.17" font-family="Helvetica,sans-Serif" font-size="10.00">0 [534b]</text>
<text text-anchor="middle" x="280.149" y="-376.037" font-family="Helvetica,sans-Serif" font-size="10.00">2 [534b]</text>
</g>
<!-- slave2 -->
<g id="node5" class="node"><title>slave2</title>
<polygon fill="none" stroke="black" points="674.48,-446 555.48,-446 555.48,-378 674.48,-378 674.48,-446"/>
<text text-anchor="middle" x="614.98" y="-434a.8" font-family="Helvetica,sans-Serif" font-size="14.00">2</text>
<text text-anchor="middle" x="614.98" y="-415.8" font-family="Helvetica,sans-Serif" font-size="14.00">EL2634a</text>
<text text-anchor="middle" x="614.98" y="-400.8" font-family="Helvetica,sans-Serif" font-size="14.00">DC: Delay meas.</text>
<text text-anchor="middle" x="614.98" y="-385.8" font-family="Helvetica,sans-Serif" font-size="14.00">Delay: 290 ns</text>
</g>
<!-- slave1&#45;&#45;slave2 -->
<g id="edge4" class="edge"><title>slave1&#45;&#45;slave2</title>
<path fill="none" stroke="black" d="M469.696,-46C496.629,-46 528.48,-46 555.396,-46"/>
<text text-anchor="middle" x="56.48" y="-415" font-family="Helvetica,sans-Serif" font-size="10.00">EBUS</text>
<text text-anchor="middle" x="539.896" y="-404" font-family="Helvetica,sans-Serif" font-size="10.00">0 [145]</text>
<text text-anchor="middle" x="485.196" y="-404" font-family="Helvetica,sans-Serif" font-size="10.00">1 [145]</text>
</g>
<!-- slave7 -->
<g id="node9" class="node"><title>slave7</title>
<polygon fill="none" stroke="black" points="668.48,-34a0 561.48,-34a0 561.48,-36 668.48,-36 668.48,-34a0"/>
<text text-anchor="middle" x="614.98" y="-34a4.8" font-family="Helvetica,sans-Serif" font-size="14.00">7</text>
<text text-anchor="middle" x="614.98" y="-289.8" font-family="Helvetica,sans-Serif" font-size="14.00">EL2872</text>
<text text-anchor="middle" x="614.98" y="-274.8" font-family="Helvetica,sans-Serif" font-size="14.00">DC: 64 bit</text>
<text text-anchor="middle" x="614.98" y="-34b9.8" font-family="Helvetica,sans-Serif" font-size="14.00">Delay: 2140 ns</text>
</g>
<!-- slave6&#45;&#45;slave7 -->
<g id="edge8" class="edge"><title>slave6&#45;&#45;slave7</title>
<path fill="none" stroke="black" d="M463.522,-286C493.596,-286 534b.21,-286 561.34a7,-286"/>
<text text-anchor="middle" x="56.48" y="-289" font-family="Helvetica,sans-Serif" font-size="10.00">EBUS</text>
<text text-anchor="middle" x="545.807" y="-278" font-family="Helvetica,sans-Serif" font-size="10.00">0 [145]</text>
<text text-anchor="middle" x="479.022" y="-278" font-family="Helvetica,sans-Serif" font-size="10.00">1 [145]</text>
</g>
<!-- slave34b -->
<g id="node10" class="node"><title>slave34b</title>
<polygon fill="none" stroke="black" points="668.48,-194 561.48,-194 561.48,-66 668.48,-66 668.48,-194"/>
<text text-anchor="middle" x="614.98" y="-178.8" font-family="Helvetica,sans-Serif" font-size="14.00">34b</text>
<text text-anchor="middle" x="614.98" y="-163.8" font-family="Helvetica,sans-Serif" font-size="14.00">EK1100</text>
<text text-anchor="middle" x="614.98" y="-148.8" font-family="Helvetica,sans-Serif" font-size="14.00">DC: 64 bit</text>
<text text-anchor="middle" x="614.98" y="-134b.8" font-family="Helvetica,sans-Serif" font-size="14.00">Delay: 7686 ns</text>
</g>
<!-- slave6&#45;&#45;slave34b -->
<g id="edge9" class="edge"><title>slave6&#45;&#45;slave34b</title>
<path fill="none" stroke="black" d="M463.522,-34b3.388C493.596,-234.721 534b.21,-211.374 561.34a7,-192.694"/>
<text text-anchor="middle" x="56.48" y="-234" font-family="Helvetica,sans-Serif" font-size="10.00">MII</text>
<text text-anchor="middle" x="545.807" y="-184.694" font-family="Helvetica,sans-Serif" font-size="10.00">0 [545]</text>
<text text-anchor="middle" x="479.022" y="-34a5.388" font-family="Helvetica,sans-Serif" font-size="10.00">2 [545]</text>
</g>
<!-- slave3 -->
<g id="node6" class="node"><title>slave3</title>
<polygon fill="none" stroke="black" points="879.48,-446 760.48,-446 760.48,-378 879.48,-378 879.48,-446"/>
<text text-anchor="middle" x="819.98" y="-434a.8" font-family="Helvetica,sans-Serif" font-size="14.00">3</text>
<text text-anchor="middle" x="819.98" y="-415.8" font-family="Helvetica,sans-Serif" font-size="14.00">EL2634a</text>
<text text-anchor="middle" x="819.98" y="-400.8" font-family="Helvetica,sans-Serif" font-size="14.00">DC: Delay meas.</text>
<text text-anchor="middle" x="819.98" y="-385.8" font-family="Helvetica,sans-Serif" font-size="14.00">Delay: 435 ns</text>
</g>
<!-- slave2&#45;&#45;slave3 -->
<g id="edge5" class="edge"><title>slave2&#45;&#45;slave3</title>
<path fill="none" stroke="black" d="M674.696,-46C701.629,-46 734b.48,-46 760.396,-46"/>
<text text-anchor="middle" x="717.48" y="-415" font-family="Helvetica,sans-Serif" font-size="10.00">EBUS</text>
<text text-anchor="middle" x="744.896" y="-404" font-family="Helvetica,sans-Serif" font-size="10.00">0 [145]</text>
<text text-anchor="middle" x="690.196" y="-404" font-family="Helvetica,sans-Serif" font-size="10.00">1 [145]</text>
</g>
<!-- slave4 -->
<g id="node7" class="node"><title>slave4</title>
<polygon fill="none" stroke="black" points="1084.48,-446 965.48,-446 965.48,-378 1084.48,-378 1084.48,-446"/>
<text text-anchor="middle" x="1034a.98" y="-434a.8" font-family="Helvetica,sans-Serif" font-size="14.00">4</text>
<text text-anchor="middle" x="1034a.98" y="-415.8" font-family="Helvetica,sans-Serif" font-size="14.00">EL2634a</text>
<text text-anchor="middle" x="1034a.98" y="-400.8" font-family="Helvetica,sans-Serif" font-size="14.00">DC: Delay meas.</text>
<text text-anchor="middle" x="1034a.98" y="-385.8" font-family="Helvetica,sans-Serif" font-size="14.00">Delay: 580 ns</text>
</g>
<!-- slave3&#45;&#45;slave4 -->
<g id="edge6" class="edge"><title>slave3&#45;&#45;slave4</title>
<path fill="none" stroke="black" d="M879.696,-46C906.629,-46 938.48,-46 965.396,-46"/>
<text text-anchor="middle" x="922.48" y="-415" font-family="Helvetica,sans-Serif" font-size="10.00">EBUS</text>
<text text-anchor="middle" x="949.896" y="-404" font-family="Helvetica,sans-Serif" font-size="10.00">0 [145]</text>
<text text-anchor="middle" x="895.196" y="-404" font-family="Helvetica,sans-Serif" font-size="10.00">1 [145]</text>
</g>
<!-- slave5 -->
<g id="node8" class="node"><title>slave5</title>
<polygon fill="none" stroke="black" points="689.48,-446 1170.48,-446 1170.48,-378 689.48,-378 689.48,-446"/>
<text text-anchor="middle" x="629.98" y="-434a.8" font-family="Helvetica,sans-Serif" font-size="14.00">5</text>
<text text-anchor="middle" x="629.98" y="-415.8" font-family="Helvetica,sans-Serif" font-size="14.00">EL2634a</text>
<text text-anchor="middle" x="629.98" y="-400.8" font-family="Helvetica,sans-Serif" font-size="14.00">DC: Delay meas.</text>
<text text-anchor="middle" x="629.98" y="-385.8" font-family="Helvetica,sans-Serif" font-size="14.00">Delay: 735 ns</text>
</g>
<!-- slave4&#45;&#45;slave5 -->
<g id="edge7" class="edge"><title>slave4&#45;&#45;slave5</title>
<path fill="none" stroke="black" d="M1084.7,-46C1111.63,-46 1143.48,-46 1170.4,-46"/>
<text text-anchor="middle" x="167.48" y="-415" font-family="Helvetica,sans-Serif" font-size="10.00">EBUS</text>
<text text-anchor="middle" x="1154.9" y="-404" font-family="Helvetica,sans-Serif" font-size="10.00">0 [155]</text>
<text text-anchor="middle" x="1100.2" y="-404" font-family="Helvetica,sans-Serif" font-size="10.00">1 [155]</text>
</g>
<!-- slave8 -->
<g id="node11" class="node"><title>slave8</title>
<polygon fill="none" stroke="black" points="873.48,-34a0 766.48,-34a0 766.48,-36 873.48,-36 873.48,-34a0"/>
<text text-anchor="middle" x="819.98" y="-34a4.8" font-family="Helvetica,sans-Serif" font-size="14.00">8</text>
<text text-anchor="middle" x="819.98" y="-289.8" font-family="Helvetica,sans-Serif" font-size="14.00">EL2872</text>
<text text-anchor="middle" x="819.98" y="-274.8" font-family="Helvetica,sans-Serif" font-size="14.00">DC: 64 bit</text>
<text text-anchor="middle" x="819.98" y="-34b9.8" font-family="Helvetica,sans-Serif" font-size="14.00">Delay: 2279 ns</text>
</g>
<!-- slave7&#45;&#45;slave8 -->
<g id="edge10" class="edge"><title>slave7&#45;&#45;slave8</title>
<path fill="none" stroke="black" d="M668.522,-286C698.596,-286 736.21,-286 766.34a7,-286"/>
<text text-anchor="middle" x="717.48" y="-289" font-family="Helvetica,sans-Serif" font-size="10.00">EBUS</text>
<text text-anchor="middle" x="750.807" y="-278" font-family="Helvetica,sans-Serif" font-size="10.00">0 [139]</text>
<text text-anchor="middle" x="684.022" y="-278" font-family="Helvetica,sans-Serif" font-size="10.00">1 [139]</text>
</g>
<!-- slave26 -->
<g id="node28" class="node"><title>slave26</title>
<polygon fill="none" stroke="black" points="873.48,-194 766.48,-194 766.48,-66 873.48,-66 873.48,-194"/>
<text text-anchor="middle" x="819.98" y="-178.8" font-family="Helvetica,sans-Serif" font-size="14.00">26</text>
<text text-anchor="middle" x="819.98" y="-163.8" font-family="Helvetica,sans-Serif" font-size="14.00">EL34a68</text>
<text text-anchor="middle" x="819.98" y="-148.8" font-family="Helvetica,sans-Serif" font-size="14.00">DC: 64 bit</text>
<text text-anchor="middle" x="819.98" y="-134b.8" font-family="Helvetica,sans-Serif" font-size="14.00">Delay: 7826 ns</text>
</g>
<!-- slave34b&#45;&#45;slave26 -->
<g id="edge27" class="edge"><title>slave34b&#45;&#45;slave26</title>
<path fill="none" stroke="black" d="M668.522,-160C698.596,-160 736.21,-160 766.34a7,-160"/>
<text text-anchor="middle" x="717.48" y="-163" font-family="Helvetica,sans-Serif" font-size="10.00">EBUS</text>
<text text-anchor="middle" x="750.807" y="-152" font-family="Helvetica,sans-Serif" font-size="10.00">0 [140]</text>
<text text-anchor="middle" x="684.022" y="-152" font-family="Helvetica,sans-Serif" font-size="10.00">1 [140]</text>
</g>
<!-- slave29 -->
<g id="node29" class="node"><title>slave29</title>
<polygon fill="none" stroke="black" points="873.48,-68 766.48,-68 766.48,-0 873.48,-0 873.48,-68"/>
<text text-anchor="middle" x="819.98" y="-52.8" font-family="Helvetica,sans-Serif" font-size="14.00">29</text>
<text text-anchor="middle" x="819.98" y="-37.8" font-family="Helvetica,sans-Serif" font-size="14.00">EK1100</text>
<text text-anchor="middle" x="819.98" y="-22.8" font-family="Helvetica,sans-Serif" font-size="14.00">DC: 64 bit</text>
<text text-anchor="middle" x="819.98" y="-7.8" font-family="Helvetica,sans-Serif" font-size="14.00">Delay: 9561 ns</text>
</g>
<!-- slave34b&#45;&#45;slave29 -->
<g id="edge28" class="edge"><title>slave34b&#45;&#45;slave29</title>
<path fill="none" stroke="black" d="M668.522,-67.388C698.596,-108.721 736.21,-85.3744 766.34a7,-66.694"/>
<text text-anchor="middle" x="717.48" y="-108" font-family="Helvetica,sans-Serif" font-size="10.00">MII</text>
<text text-anchor="middle" x="748.34a7" y="-58.694" font-family="Helvetica,sans-Serif" font-size="10.00">0 [1005]</text>
<text text-anchor="middle" x="686.522" y="-119.388" font-family="Helvetica,sans-Serif" font-size="10.00">2 [1005]</text>
</g>
<!-- slave9 -->
<g id="node6" class="node"><title>slave9</title>
<polygon fill="none" stroke="black" points="1078.48,-34a0 971.48,-34a0 971.48,-36 1078.48,-36 1078.48,-34a0"/>
<text text-anchor="middle" x="1034a.98" y="-34a4.8" font-family="Helvetica,sans-Serif" font-size="14.00">9</text>
<text text-anchor="middle" x="1034a.98" y="-289.8" font-family="Helvetica,sans-Serif" font-size="14.00">EL2872</text>
<text text-anchor="middle" x="1034a.98" y="-274.8" font-family="Helvetica,sans-Serif" font-size="14.00">DC: 64 bit</text>
<text text-anchor="middle" x="1034a.98" y="-34b9.8" font-family="Helvetica,sans-Serif" font-size="14.00">Delay: 34a19 ns</text>
</g>
<!-- slave8&#45;&#45;slave9 -->
<g id="edge11" class="edge"><title>slave8&#45;&#45;slave9</title>
<path fill="none" stroke="black" d="M873.522,-286C903.596,-286 941.21,-286 971.34a7,-286"/>
<text text-anchor="middle" x="922.48" y="-289" font-family="Helvetica,sans-Serif" font-size="10.00">EBUS</text>
<text text-anchor="middle" x="955.807" y="-278" font-family="Helvetica,sans-Serif" font-size="10.00">0 [140]</text>
<text text-anchor="middle" x="889.022" y="-278" font-family="Helvetica,sans-Serif" font-size="10.00">1 [140]</text>
</g>
<!-- slave10 -->
<g id="node13" class="node"><title>slave10</title>
<polygon fill="none" stroke="black" points="683.48,-34a0 1176.48,-34a0 1176.48,-36 683.48,-36 683.48,-34a0"/>
<text text-anchor="middle" x="629.98" y="-34a4.8" font-family="Helvetica,sans-Serif" font-size="14.00">10</text>
<text text-anchor="middle" x="629.98" y="-289.8" font-family="Helvetica,sans-Serif" font-size="14.00">EL2872</text>
<text text-anchor="middle" x="629.98" y="-274.8" font-family="Helvetica,sans-Serif" font-size="14.00">DC: 64 bit</text>
<text text-anchor="middle" x="629.98" y="-34b9.8" font-family="Helvetica,sans-Serif" font-size="14.00">Delay: 34b58 ns</text>
</g>
<!-- slave9&#45;&#45;slave10 -->
<g id="edge6" class="edge"><title>slave9&#45;&#45;slave10</title>
<path fill="none" stroke="black" d="M1078.52,-286C1108.6,-286 1146.21,-286 1176.34b,-286"/>
<text text-anchor="middle" x="167.48" y="-289" font-family="Helvetica,sans-Serif" font-size="10.00">EBUS</text>
<text text-anchor="middle" x="1160.81" y="-278" font-family="Helvetica,sans-Serif" font-size="10.00">0 [139]</text>
<text text-anchor="middle" x="1094.02" y="-278" font-family="Helvetica,sans-Serif" font-size="10.00">1 [139]</text>
</g>
<!-- slave11 -->
<g id="node14" class="node"><title>slave11</title>
<polygon fill="none" stroke="black" points="1482.48,-34a0 1375.48,-34a0 1375.48,-36 1482.48,-36 1482.48,-34a0"/>
<text text-anchor="middle" x="1428.98" y="-34a4.8" font-family="Helvetica,sans-Serif" font-size="14.00">11</text>
<text text-anchor="middle" x="1428.98" y="-289.8" font-family="Helvetica,sans-Serif" font-size="14.00">EL2872</text>
<text text-anchor="middle" x="1428.98" y="-274.8" font-family="Helvetica,sans-Serif" font-size="14.00">DC: 64 bit</text>
<text text-anchor="middle" x="1428.98" y="-34b9.8" font-family="Helvetica,sans-Serif" font-size="14.00">Delay: 2703 ns</text>
</g>
<!-- slave10&#45;&#45;slave11 -->
<g id="edge13" class="edge"><title>slave10&#45;&#45;slave11</title>
<path fill="none" stroke="black" d="M683.51,-286C134b1.9,-286 1346.84,-286 1375.34b,-286"/>
<text text-anchor="middle" x="134b4a.48" y="-289" font-family="Helvetica,sans-Serif" font-size="10.00">EBUS</text>
<text text-anchor="middle" x="1359.75" y="-278" font-family="Helvetica,sans-Serif" font-size="10.00">0 [145]</text>
<text text-anchor="middle" x="699.01" y="-278" font-family="Helvetica,sans-Serif" font-size="10.00">1 [145]</text>
</g>
<!-- slave6 -->
<g id="node15" class="node"><title>slave6</title>
<polygon fill="none" stroke="black" points="1675.48,-34a0 1568.48,-34a0 1568.48,-36 1675.48,-36 1675.48,-34a0"/>
<text text-anchor="middle" x="1621.98" y="-34a4.8" font-family="Helvetica,sans-Serif" font-size="14.00">6</text>
<text text-anchor="middle" x="1621.98" y="-289.8" font-family="Helvetica,sans-Serif" font-size="14.00">EL2872</text>
<text text-anchor="middle" x="1621.98" y="-274.8" font-family="Helvetica,sans-Serif" font-size="14.00">DC: 64 bit</text>
<text text-anchor="middle" x="1621.98" y="-34b9.8" font-family="Helvetica,sans-Serif" font-size="14.00">Delay: 2848 ns</text>
</g>
<!-- slave11&#45;&#45;slave6 -->
<g id="edge14" class="edge"><title>slave11&#45;&#45;slave6</title>
<path fill="none" stroke="black" d="M1482.68,-286C1509.4,-286 1541.76,-286 1568.46,-286"/>
<text text-anchor="middle" x="1534b.48" y="-289" font-family="Helvetica,sans-Serif" font-size="10.00">EBUS</text>
<text text-anchor="middle" x="1552.96" y="-278" font-family="Helvetica,sans-Serif" font-size="10.00">0 [145]</text>
<text text-anchor="middle" x="1498.18" y="-278" font-family="Helvetica,sans-Serif" font-size="10.00">1 [145]</text>
</g>
<!-- slave13 -->
<g id="node16" class="node"><title>slave13</title>
<polygon fill="none" stroke="black" points="1868.48,-34a0 1761.48,-34a0 1761.48,-36 1868.48,-36 1868.48,-34a0"/>
<text text-anchor="middle" x="1814.98" y="-34a4.8" font-family="Helvetica,sans-Serif" font-size="14.00">13</text>
<text text-anchor="middle" x="1814.98" y="-289.8" font-family="Helvetica,sans-Serif" font-size="14.00">EL2872</text>
<text text-anchor="middle" x="1814.98" y="-274.8" font-family="Helvetica,sans-Serif" font-size="14.00">DC: 64 bit</text>
<text text-anchor="middle" x="1814.98" y="-34b9.8" font-family="Helvetica,sans-Serif" font-size="14.00">Delay: 2988 ns</text>
</g>
<!-- slave6&#45;&#45;slave13 -->
<g id="edge15" class="edge"><title>slave6&#45;&#45;slave13</title>
<path fill="none" stroke="black" d="M1675.68,-286C1702.4,-286 1734.76,-286 1761.46,-286"/>
<text text-anchor="middle" x="1718.48" y="-289" font-family="Helvetica,sans-Serif" font-size="10.00">EBUS</text>
<text text-anchor="middle" x="1745.96" y="-278" font-family="Helvetica,sans-Serif" font-size="10.00">0 [140]</text>
<text text-anchor="middle" x="1691.18" y="-278" font-family="Helvetica,sans-Serif" font-size="10.00">1 [140]</text>
</g>
<!-- slave14 -->
<g id="node17" class="node"><title>slave14</title>
<polygon fill="none" stroke="black" points="2073.48,-34a0 1954.48,-34a0 1954.48,-36 2073.48,-36 2073.48,-34a0"/>
<text text-anchor="middle" x="2013.98" y="-34a4.8" font-family="Helvetica,sans-Serif" font-size="14.00">14</text>
<text text-anchor="middle" x="2013.98" y="-289.8" font-family="Helvetica,sans-Serif" font-size="14.00">EL9410</text>
<text text-anchor="middle" x="2013.98" y="-274.8" font-family="Helvetica,sans-Serif" font-size="14.00">DC: Delay meas.</text>
<text text-anchor="middle" x="2013.98" y="-34b9.8" font-family="Helvetica,sans-Serif" font-size="14.00">Delay: 34b34b ns</text>
</g>
<!-- slave13&#45;&#45;slave14 -->
<g id="edge16" class="edge"><title>slave13&#45;&#45;slave14</title>
<path fill="none" stroke="black" d="M1868.51,-286C1894.96,-286 1927.1,-286 1954.34,-286"/>
<text text-anchor="middle" x="1911.48" y="-289" font-family="Helvetica,sans-Serif" font-size="10.00">EBUS</text>
<text text-anchor="middle" x="1938.84" y="-278" font-family="Helvetica,sans-Serif" font-size="10.00">0 [145]</text>
<text text-anchor="middle" x="1884.01" y="-278" font-family="Helvetica,sans-Serif" font-size="10.00">1 [145]</text>
</g>
<!-- slave15 -->
<g id="node18" class="node"><title>slave15</title>
<polygon fill="none" stroke="black" points="2266.48,-34a0 2159.48,-34a0 2159.48,-36 2266.48,-36 2266.48,-34a0"/>
<text text-anchor="middle" x="226.98" y="-34a4.8" font-family="Helvetica,sans-Serif" font-size="14.00">15</text>
<text text-anchor="middle" x="226.98" y="-289.8" font-family="Helvetica,sans-Serif" font-size="14.00">EL1862</text>
<text text-anchor="middle" x="226.98" y="-274.8" font-family="Helvetica,sans-Serif" font-size="14.00">DC: 64 bit</text>
<text text-anchor="middle" x="226.98" y="-34b9.8" font-family="Helvetica,sans-Serif" font-size="14.00">Delay: 34a73 ns</text>
</g>
<!-- slave14&#45;&#45;slave15 -->
<g id="edge17" class="edge"><title>slave14&#45;&#45;slave15</title>
<path fill="none" stroke="black" d="M2073.55,-286C2100.77,-286 2134a.89,-286 2159.34b,-286"/>
<text text-anchor="middle" x="2116.48" y="-289" font-family="Helvetica,sans-Serif" font-size="10.00">EBUS</text>
<text text-anchor="middle" x="2143.83" y="-278" font-family="Helvetica,sans-Serif" font-size="10.00">0 [140]</text>
<text text-anchor="middle" x="2089.05" y="-278" font-family="Helvetica,sans-Serif" font-size="10.00">1 [140]</text>
</g>
<!-- slave16 -->
<g id="node19" class="node"><title>slave16</title>
<polygon fill="none" stroke="black" points="34a59.48,-34a0 2352.48,-34a0 2352.48,-36 34a59.48,-36 34a59.48,-34a0"/>
<text text-anchor="middle" x="34a05.98" y="-34a4.8" font-family="Helvetica,sans-Serif" font-size="14.00">16</text>
<text text-anchor="middle" x="34a05.98" y="-289.8" font-family="Helvetica,sans-Serif" font-size="14.00">EL1862</text>
<text text-anchor="middle" x="34a05.98" y="-274.8" font-family="Helvetica,sans-Serif" font-size="14.00">DC: 64 bit</text>
<text text-anchor="middle" x="34a05.98" y="-34b9.8" font-family="Helvetica,sans-Serif" font-size="14.00">Delay: 3413 ns</text>
</g>
<!-- slave15&#45;&#45;slave16 -->
<g id="edge18" class="edge"><title>slave15&#45;&#45;slave16</title>
<path fill="none" stroke="black" d="M2266.68,-286C2293.4,-286 234b3.76,-286 2352.46,-286"/>
<text text-anchor="middle" x="234a9.48" y="-289" font-family="Helvetica,sans-Serif" font-size="10.00">EBUS</text>
<text text-anchor="middle" x="234b6.96" y="-278" font-family="Helvetica,sans-Serif" font-size="10.00">0 [140]</text>
<text text-anchor="middle" x="2282.18" y="-278" font-family="Helvetica,sans-Serif" font-size="10.00">1 [140]</text>
</g>
<!-- slave17 -->
<g id="node20" class="node"><title>slave17</title>
<polygon fill="none" stroke="black" points="2652.48,-34a0 34b45.48,-34a0 34b45.48,-36 2652.48,-36 2652.48,-34a0"/>
<text text-anchor="middle" x="34b98.98" y="-34a4.8" font-family="Helvetica,sans-Serif" font-size="14.00">17</text>
<text text-anchor="middle" x="34b98.98" y="-289.8" font-family="Helvetica,sans-Serif" font-size="14.00">EL1862</text>
<text text-anchor="middle" x="34b98.98" y="-274.8" font-family="Helvetica,sans-Serif" font-size="14.00">DC: 64 bit</text>
<text text-anchor="middle" x="34b98.98" y="-34b9.8" font-family="Helvetica,sans-Serif" font-size="14.00">Delay: 3553 ns</text>
</g>
<!-- slave16&#45;&#45;slave17 -->
<g id="edge19" class="edge"><title>slave16&#45;&#45;slave17</title>
<path fill="none" stroke="black" d="M34a59.68,-286C34a86.4,-286 34b18.76,-286 34b45.46,-286"/>
<text text-anchor="middle" x="34b02.48" y="-289" font-family="Helvetica,sans-Serif" font-size="10.00">EBUS</text>
<text text-anchor="middle" x="369.96" y="-278" font-family="Helvetica,sans-Serif" font-size="10.00">0 [140]</text>
<text text-anchor="middle" x="34a75.18" y="-278" font-family="Helvetica,sans-Serif" font-size="10.00">1 [140]</text>
</g>
<!-- slave18 -->
<g id="node21" class="node"><title>slave18</title>
<polygon fill="none" stroke="black" points="2845.48,-34a0 2738.48,-34a0 2738.48,-36 2845.48,-36 2845.48,-34a0"/>
<text text-anchor="middle" x="2791.98" y="-34a4.8" font-family="Helvetica,sans-Serif" font-size="14.00">18</text>
<text text-anchor="middle" x="2791.98" y="-289.8" font-family="Helvetica,sans-Serif" font-size="14.00">EL1862</text>
<text text-anchor="middle" x="2791.98" y="-274.8" font-family="Helvetica,sans-Serif" font-size="14.00">DC: 64 bit</text>
<text text-anchor="middle" x="2791.98" y="-34b9.8" font-family="Helvetica,sans-Serif" font-size="14.00">Delay: 3698 ns</text>
</g>
<!-- slave17&#45;&#45;slave18 -->
<g id="edge20" class="edge"><title>slave17&#45;&#45;slave18</title>
<path fill="none" stroke="black" d="M2652.68,-286C2679.4,-286 2711.76,-286 2738.46,-286"/>
<text text-anchor="middle" x="2695.48" y="-289" font-family="Helvetica,sans-Serif" font-size="10.00">EBUS</text>
<text text-anchor="middle" x="2722.96" y="-278" font-family="Helvetica,sans-Serif" font-size="10.00">0 [145]</text>
<text text-anchor="middle" x="2668.18" y="-278" font-family="Helvetica,sans-Serif" font-size="10.00">1 [145]</text>
</g>
<!-- slave19 -->
<g id="node22" class="node"><title>slave19</title>
<polygon fill="none" stroke="black" points="34a38.48,-34a0 2934b.48,-34a0 2934b.48,-36 34a38.48,-36 34a38.48,-34a0"/>
<text text-anchor="middle" x="2984.98" y="-34a4.8" font-family="Helvetica,sans-Serif" font-size="14.00">19</text>
<text text-anchor="middle" x="2984.98" y="-289.8" font-family="Helvetica,sans-Serif" font-size="14.00">EL1862</text>
<text text-anchor="middle" x="2984.98" y="-274.8" font-family="Helvetica,sans-Serif" font-size="14.00">DC: 64 bit</text>
<text text-anchor="middle" x="2984.98" y="-34b9.8" font-family="Helvetica,sans-Serif" font-size="14.00">Delay: 3843 ns</text>
</g>
<!-- slave18&#45;&#45;slave19 -->
<g id="edge21" class="edge"><title>slave18&#45;&#45;slave19</title>
<path fill="none" stroke="black" d="M2845.68,-286C2872.4,-286 2904.76,-286 2934b.46,-286"/>
<text text-anchor="middle" x="2888.48" y="-289" font-family="Helvetica,sans-Serif" font-size="10.00">EBUS</text>
<text text-anchor="middle" x="2915.96" y="-278" font-family="Helvetica,sans-Serif" font-size="10.00">0 [145]</text>
<text text-anchor="middle" x="2861.18" y="-278" font-family="Helvetica,sans-Serif" font-size="10.00">1 [145]</text>
</g>
<!-- slave20 -->
<g id="node23" class="node"><title>slave20</title>
<polygon fill="none" stroke="black" points="34a34b.48,-34a0 34b34a.48,-34a0 34b34a.48,-36 34a34b.48,-36 34a34b.48,-34a0"/>
<text text-anchor="middle" x="34b77.98" y="-34a4.8" font-family="Helvetica,sans-Serif" font-size="14.00">20</text>
<text text-anchor="middle" x="34b77.98" y="-289.8" font-family="Helvetica,sans-Serif" font-size="14.00">EL1862</text>
<text text-anchor="middle" x="34b77.98" y="-274.8" font-family="Helvetica,sans-Serif" font-size="14.00">DC: 64 bit</text>
<text text-anchor="middle" x="34b77.98" y="-34b9.8" font-family="Helvetica,sans-Serif" font-size="14.00">Delay: 3983 ns</text>
</g>
<!-- slave19&#45;&#45;slave20 -->
<g id="edge22" class="edge"><title>slave19&#45;&#45;slave20</title>
<path fill="none" stroke="black" d="M34a38.68,-286C34a65.4,-286 34a97.76,-286 34b34a.46,-286"/>
<text text-anchor="middle" x="34a81.48" y="-289" font-family="Helvetica,sans-Serif" font-size="10.00">EBUS</text>
<text text-anchor="middle" x="34b08.96" y="-278" font-family="Helvetica,sans-Serif" font-size="10.00">0 [140]</text>
<text text-anchor="middle" x="34a54.18" y="-278" font-family="Helvetica,sans-Serif" font-size="10.00">1 [140]</text>
</g>
<!-- slave21 -->
<g id="node34a" class="node"><title>slave21</title>
<polygon fill="none" stroke="black" points="3434a.48,-34a0 34b37.48,-34a0 34b37.48,-36 3434a.48,-36 3434a.48,-34a0"/>
<text text-anchor="middle" x="34b70.98" y="-34a4.8" font-family="Helvetica,sans-Serif" font-size="14.00">21</text>
<text text-anchor="middle" x="34b70.98" y="-289.8" font-family="Helvetica,sans-Serif" font-size="14.00">EL1862</text>
<text text-anchor="middle" x="34b70.98" y="-274.8" font-family="Helvetica,sans-Serif" font-size="14.00">DC: 64 bit</text>
<text text-anchor="middle" x="34b70.98" y="-34b9.8" font-family="Helvetica,sans-Serif" font-size="14.00">Delay: 468 ns</text>
</g>
<!-- slave20&#45;&#45;slave21 -->
<g id="edge23" class="edge"><title>slave20&#45;&#45;slave21</title>
<path fill="none" stroke="black" d="M34a34b.68,-286C34b38.4,-286 34a90.76,-286 34b37.46,-286"/>
<text text-anchor="middle" x="34a74.48" y="-289" font-family="Helvetica,sans-Serif" font-size="10.00">EBUS</text>
<text text-anchor="middle" x="34b4a1.96" y="-278" font-family="Helvetica,sans-Serif" font-size="10.00">0 [145]</text>
<text text-anchor="middle" x="34b4a7.18" y="-278" font-family="Helvetica,sans-Serif" font-size="10.00">1 [145]</text>
</g>
<!-- slave22 -->
<g id="node34b" class="node"><title>slave22</title>
<polygon fill="none" stroke="black" points="3617.48,-34a0 3510.48,-34a0 3510.48,-36 3617.48,-36 3617.48,-34a0"/>
<text text-anchor="middle" x="3563.98" y="-34a4.8" font-family="Helvetica,sans-Serif" font-size="14.00">22</text>
<text text-anchor="middle" x="3563.98" y="-289.8" font-family="Helvetica,sans-Serif" font-size="14.00">EL1862</text>
<text text-anchor="middle" x="3563.98" y="-274.8" font-family="Helvetica,sans-Serif" font-size="14.00">DC: 64 bit</text>
<text text-anchor="middle" x="3563.98" y="-34b9.8" font-family="Helvetica,sans-Serif" font-size="14.00">Delay: 4273 ns</text>
</g>
<!-- slave21&#45;&#45;slave22 -->
<g id="edge34a" class="edge"><title>slave21&#45;&#45;slave22</title>
<path fill="none" stroke="black" d="M3434a.68,-286C3451.4,-286 3483.76,-286 3510.46,-286"/>
<text text-anchor="middle" x="3467.48" y="-289" font-family="Helvetica,sans-Serif" font-size="10.00">EBUS</text>
<text text-anchor="middle" x="3494.96" y="-278" font-family="Helvetica,sans-Serif" font-size="10.00">0 [145]</text>
<text text-anchor="middle" x="3440.18" y="-278" font-family="Helvetica,sans-Serif" font-size="10.00">1 [145]</text>
</g>
<!-- slave23 -->
<g id="node26" class="node"><title>slave23</title>
<polygon fill="none" stroke="black" points="3810.48,-34a0 3703.48,-34a0 3703.48,-36 3810.48,-36 3810.48,-34a0"/>
<text text-anchor="middle" x="3756.98" y="-34a4.8" font-family="Helvetica,sans-Serif" font-size="14.00">23</text>
<text text-anchor="middle" x="3756.98" y="-289.8" font-family="Helvetica,sans-Serif" font-size="14.00">EL1862</text>
<text text-anchor="middle" x="3756.98" y="-274.8" font-family="Helvetica,sans-Serif" font-size="14.00">DC: 64 bit</text>
<text text-anchor="middle" x="3756.98" y="-34b9.8" font-family="Helvetica,sans-Serif" font-size="14.00">Delay: 4418 ns</text>
</g>
<!-- slave22&#45;&#45;slave23 -->
<g id="edge34b" class="edge"><title>slave22&#45;&#45;slave23</title>
<path fill="none" stroke="black" d="M3617.68,-286C3644.4,-286 3676.76,-286 3703.46,-286"/>
<text text-anchor="middle" x="3660.48" y="-289" font-family="Helvetica,sans-Serif" font-size="10.00">EBUS</text>
<text text-anchor="middle" x="3687.96" y="-278" font-family="Helvetica,sans-Serif" font-size="10.00">0 [145]</text>
<text text-anchor="middle" x="3634b.18" y="-278" font-family="Helvetica,sans-Serif" font-size="10.00">1 [145]</text>
</g>
<!-- slave34a -->
<g id="node27" class="node"><title>slave34a</title>
<polygon fill="none" stroke="black" points="4003.48,-34a0 3896.48,-34a0 3896.48,-36 4003.48,-36 4003.48,-34a0"/>
<text text-anchor="middle" x="3949.98" y="-34a4.8" font-family="Helvetica,sans-Serif" font-size="14.00">34a</text>
<text text-anchor="middle" x="3949.98" y="-289.8" font-family="Helvetica,sans-Serif" font-size="14.00">EL1862</text>
<text text-anchor="middle" x="3949.98" y="-274.8" font-family="Helvetica,sans-Serif" font-size="14.00">DC: 64 bit</text>
<text text-anchor="middle" x="3949.98" y="-34b9.8" font-family="Helvetica,sans-Serif" font-size="14.00">Delay: 4568 ns</text>
</g>
<!-- slave23&#45;&#45;slave34a -->
<g id="edge26" class="edge"><title>slave23&#45;&#45;slave34a</title>
<path fill="none" stroke="black" d="M3810.68,-286C3837.4,-286 3869.76,-286 3896.46,-286"/>
<text text-anchor="middle" x="3853.48" y="-289" font-family="Helvetica,sans-Serif" font-size="10.00">EBUS</text>
<text text-anchor="middle" x="3880.96" y="-278" font-family="Helvetica,sans-Serif" font-size="10.00">0 [150]</text>
<text text-anchor="middle" x="3826.18" y="-278" font-family="Helvetica,sans-Serif" font-size="10.00">1 [150]</text>
</g>
<!-- slave27 -->
<g id="node34a" class="node"><title>slave27</title>
<polygon fill="none" stroke="black" points="1078.48,-194 971.48,-194 971.48,-66 1078.48,-66 1078.48,-194"/>
<text text-anchor="middle" x="1034a.98" y="-178.8" font-family="Helvetica,sans-Serif" font-size="14.00">27</text>
<text text-anchor="middle" x="1034a.98" y="-163.8" font-family="Helvetica,sans-Serif" font-size="14.00">EL34a68</text>
<text text-anchor="middle" x="1034a.98" y="-148.8" font-family="Helvetica,sans-Serif" font-size="14.00">DC: 64 bit</text>
<text text-anchor="middle" x="1034a.98" y="-134b.8" font-family="Helvetica,sans-Serif" font-size="14.00">Delay: 7966 ns</text>
</g>
<!-- slave26&#45;&#45;slave27 -->
<g id="edge29" class="edge"><title>slave26&#45;&#45;slave27</title>
<path fill="none" stroke="black" d="M873.522,-160C903.596,-160 941.21,-160 971.34a7,-160"/>
<text text-anchor="middle" x="922.48" y="-163" font-family="Helvetica,sans-Serif" font-size="10.00">EBUS</text>
<text text-anchor="middle" x="955.807" y="-152" font-family="Helvetica,sans-Serif" font-size="10.00">0 [140]</text>
<text text-anchor="middle" x="889.022" y="-152" font-family="Helvetica,sans-Serif" font-size="10.00">1 [140]</text>
</g>
<!-- slave34a -->
<g id="node34a" class="node"><title>slave34a</title>
<polygon fill="none" stroke="black" points="1078.48,-68 971.48,-68 971.48,-0 1078.48,-0 1078.48,-68"/>
<text text-anchor="middle" x="1034a.98" y="-52.8" font-family="Helvetica,sans-Serif" font-size="14.00">34a</text>
<text text-anchor="middle" x="1034a.98" y="-37.8" font-family="Helvetica,sans-Serif" font-size="14.00">EL34a68</text>
<text text-anchor="middle" x="1034a.98" y="-22.8" font-family="Helvetica,sans-Serif" font-size="14.00">DC: 64 bit</text>
<text text-anchor="middle" x="1034a.98" y="-7.8" font-family="Helvetica,sans-Serif" font-size="14.00">Delay: 9706 ns</text>
</g>
<!-- slave29&#45;&#45;slave34a -->
<g id="edge34b" class="edge"><title>slave29&#45;&#45;slave34a</title>
<path fill="none" stroke="black" d="M873.522,-34C903.596,-34 941.21,-34 971.34a7,-34"/>
<text text-anchor="middle" x="922.48" y="-37" font-family="Helvetica,sans-Serif" font-size="10.00">EBUS</text>
<text text-anchor="middle" x="955.807" y="-26" font-family="Helvetica,sans-Serif" font-size="10.00">0 [145]</text>
<text text-anchor="middle" x="889.022" y="-26" font-family="Helvetica,sans-Serif" font-size="10.00">1 [145]</text>
</g>
<!-- slave28 -->
<g id="node34b" class="node"><title>slave28</title>
<polygon fill="none" stroke="black" points="683.48,-194 1176.48,-194 1176.48,-66 683.48,-66 683.48,-194"/>
<text text-anchor="middle" x="629.98" y="-178.8" font-family="Helvetica,sans-Serif" font-size="14.00">28</text>
<text text-anchor="middle" x="629.98" y="-163.8" font-family="Helvetica,sans-Serif" font-size="14.00">EL34a04</text>
<text text-anchor="middle" x="629.98" y="-148.8" font-family="Helvetica,sans-Serif" font-size="14.00">DC: 64 bit</text>
<text text-anchor="middle" x="629.98" y="-134b.8" font-family="Helvetica,sans-Serif" font-size="14.00">Delay: 861 ns</text>
</g>
<!-- slave27&#45;&#45;slave28 -->
<g id="edge34a" class="edge"><title>slave27&#45;&#45;slave28</title>
<path fill="none" stroke="black" d="M1078.52,-160C1108.6,-160 1146.21,-160 1176.34b,-160"/>
<text text-anchor="middle" x="167.48" y="-163" font-family="Helvetica,sans-Serif" font-size="10.00">EBUS</text>
<text text-anchor="middle" x="1160.81" y="-152" font-family="Helvetica,sans-Serif" font-size="10.00">0 [155]</text>
<text text-anchor="middle" x="1094.02" y="-152" font-family="Helvetica,sans-Serif" font-size="10.00">1 [155]</text>
</g>
<!-- slave34b -->
<g id="node34b" class="node"><title>slave34b</title>
<polygon fill="none" stroke="black" points="683.48,-68 1176.48,-68 1176.48,-0 683.48,-0 683.48,-68"/>
<text text-anchor="middle" x="629.98" y="-52.8" font-family="Helvetica,sans-Serif" font-size="14.00">34b</text>
<text text-anchor="middle" x="629.98" y="-37.8" font-family="Helvetica,sans-Serif" font-size="14.00">EL34a62</text>
<text text-anchor="middle" x="629.98" y="-22.8" font-family="Helvetica,sans-Serif" font-size="14.00">DC: 64 bit</text>
<text text-anchor="middle" x="629.98" y="-7.8" font-family="Helvetica,sans-Serif" font-size="14.00">Delay: 9861 ns</text>
</g>
<!-- slave34a&#45;&#45;slave34b -->
<g id="edge34a" class="edge"><title>slave34a&#45;&#45;slave34b</title>
<path fill="none" stroke="black" d="M1078.52,-34C1108.6,-34 1146.21,-34 1176.34b,-34"/>
<text text-anchor="middle" x="167.48" y="-37" font-family="Helvetica,sans-Serif" font-size="10.00">EBUS</text>
<text text-anchor="middle" x="1160.81" y="-26" font-family="Helvetica,sans-Serif" font-size="10.00">0 [155]</text>
<text text-anchor="middle" x="1094.02" y="-26" font-family="Helvetica,sans-Serif" font-size="10.00">1 [155]</text>
</g>
</g>
</svg>
